<?xml version="1.0" standalone="no"?><!DOCTYPE svg PUBLIC "-//W3C//DTD SVG 1.1//EN" "http://www.w3.org/Graphics/SVG/1.1/DTD/svg11.dtd"><svg xmlns="http://www.w3.org/2000/svg" version="1.1" width="63px" height="29.4px" viewBox="0 -1 63 29.4" style="top:-1px">  <desc>94%</desc>  <defs/>  <g id="Polygon33955">    <path d="M 16.2 15.2 C 16.2 15.2 18.3 15 18.3 15 C 18.4 15.4 18.5 15.8 18.7 16 C 19 16.2 19.2 16.3 19.6 16.3 C 20.1 16.3 20.4 16.1 20.8 15.7 C 21.1 15.2 21.3 14.4 21.4 13.1 C 20.8 13.7 20.1 14 19.3 14 C 18.4 14 17.6 13.7 17 13 C 16.3 12.3 16 11.4 16 10.3 C 16 9.1 16.3 8.2 17 7.5 C 17.7 6.7 18.6 6.4 19.7 6.4 C 20.8 6.4 21.8 6.8 22.5 7.7 C 23.3 8.6 23.6 10.1 23.6 12.2 C 23.6 14.3 23.2 15.8 22.5 16.7 C 21.7 17.6 20.7 18.1 19.4 18.1 C 18.5 18.1 17.8 17.8 17.3 17.4 C 16.7 16.9 16.4 16.2 16.2 15.2 Z M 21.2 10.4 C 21.2 9.7 21 9.2 20.7 8.8 C 20.4 8.4 20 8.2 19.6 8.2 C 19.1 8.2 18.8 8.4 18.5 8.7 C 18.3 9 18.1 9.5 18.1 10.3 C 18.1 11 18.3 11.5 18.6 11.9 C 18.9 12.2 19.2 12.4 19.7 12.4 C 20.1 12.4 20.4 12.2 20.7 11.9 C 21 11.6 21.2 11.1 21.2 10.4 Z M 29.4 17.9 L 29.4 15.6 L 24.7 15.6 L 24.7 13.7 L 29.6 6.4 L 31.5 6.4 L 31.5 13.7 L 32.9 13.7 L 32.9 15.6 L 31.5 15.6 L 31.5 17.9 L 29.4 17.9 Z M 29.4 13.7 L 29.4 9.7 L 26.7 13.7 L 29.4 13.7 Z M 34 9.3 C 34 8.2 34.2 7.5 34.6 7 C 35.1 6.5 35.7 6.2 36.5 6.2 C 37.3 6.2 37.9 6.5 38.3 7 C 38.8 7.5 39 8.2 39 9.3 C 39 10.3 38.8 11 38.3 11.5 C 37.9 12 37.3 12.3 36.5 12.3 C 35.7 12.3 35.1 12 34.6 11.5 C 34.2 11.1 34 10.3 34 9.3 Z M 35.9 7.7 C 35.8 8 35.7 8.5 35.7 9.2 C 35.7 10 35.8 10.5 35.9 10.7 C 36.1 10.9 36.2 11 36.5 11 C 36.7 11 36.9 10.9 37 10.7 C 37.2 10.5 37.3 10 37.3 9.2 C 37.3 8.5 37.2 8 37 7.8 C 36.9 7.6 36.7 7.5 36.5 7.5 C 36.2 7.5 36.1 7.6 35.9 7.7 C 35.9 7.7 35.9 7.7 35.9 7.7 Z M 38.1 18.3 L 36.5 18.3 L 42.6 6.2 L 44.2 6.2 L 38.1 18.3 Z M 41.7 15.3 C 41.7 14.3 41.9 13.5 42.4 13 C 42.8 12.5 43.4 12.3 44.2 12.3 C 45 12.3 45.6 12.5 46.1 13 C 46.5 13.5 46.7 14.3 46.7 15.3 C 46.7 16.3 46.5 17.1 46.1 17.6 C 45.6 18.1 45 18.3 44.2 18.3 C 43.4 18.3 42.8 18.1 42.4 17.6 C 41.9 17.1 41.7 16.3 41.7 15.3 Z M 43.7 13.8 C 43.5 14.1 43.4 14.6 43.4 15.3 C 43.4 16.1 43.5 16.5 43.7 16.8 C 43.8 17 44 17.1 44.2 17.1 C 44.4 17.1 44.6 17 44.7 16.8 C 44.9 16.6 45 16.1 45 15.3 C 45 14.6 44.9 14.1 44.7 13.8 C 44.6 13.6 44.4 13.5 44.2 13.5 C 44 13.5 43.8 13.6 43.7 13.8 C 43.7 13.8 43.7 13.8 43.7 13.8 Z " stroke="none" fill="#000"/>  </g></svg>