<?xml version="1.0" standalone="no"?><!DOCTYPE svg PUBLIC "-//W3C//DTD SVG 1.1//EN" "http://www.w3.org/Graphics/SVG/1.1/DTD/svg11.dtd"><svg xmlns="http://www.w3.org/2000/svg" version="1.1" width="30px" height="20.5px" viewBox="0 -4 30 20.5" style="top:-4px">  <desc>Good</desc>  <defs/>  <g id="Polygon34968">    <path d="M 5.5 5.4 L 5.5 4.4 L 9.2 4.4 C 9.2 4.4 9.18 7.54 9.2 7.5 C 8.6 8 8 8.3 7.4 8.5 C 6.9 8.8 6.2 8.9 5.6 8.9 C 4.8 8.9 4 8.7 3.3 8.3 C 2.6 8 2.1 7.5 1.8 6.8 C 1.4 6.1 1.2 5.3 1.2 4.5 C 1.2 3.6 1.4 2.9 1.8 2.1 C 2.1 1.4 2.6 0.9 3.3 0.5 C 3.9 0.2 4.7 0 5.5 0 C 6.2 0 6.7 0.1 7.2 0.3 C 7.7 0.5 8.1 0.8 8.4 1.1 C 8.7 1.5 8.9 2 9 2.5 C 9 2.5 8 2.8 8 2.8 C 7.9 2.4 7.7 2 7.5 1.8 C 7.4 1.5 7.1 1.3 6.7 1.2 C 6.4 1 6 1 5.5 1 C 5 1 4.6 1.1 4.2 1.2 C 3.8 1.4 3.5 1.6 3.3 1.8 C 3 2.1 2.9 2.4 2.7 2.7 C 2.5 3.2 2.4 3.8 2.4 4.4 C 2.4 5.2 2.5 5.8 2.8 6.3 C 3.1 6.8 3.4 7.2 3.9 7.5 C 4.5 7.7 5 7.9 5.6 7.9 C 6 7.9 6.5 7.8 7 7.6 C 7.5 7.4 7.8 7.2 8.1 7 C 8.06 6.97 8.1 5.4 8.1 5.4 L 5.5 5.4 Z M 10.3 5.6 C 10.3 4.5 10.6 3.6 11.3 3.1 C 11.8 2.6 12.5 2.4 13.2 2.4 C 14.1 2.4 14.8 2.7 15.3 3.2 C 15.9 3.8 16.2 4.5 16.2 5.5 C 16.2 6.3 16 7 15.8 7.4 C 15.6 7.9 15.2 8.2 14.7 8.5 C 14.3 8.7 13.8 8.9 13.2 8.9 C 12.4 8.9 11.7 8.6 11.1 8 C 10.6 7.5 10.3 6.7 10.3 5.6 Z M 11.4 5.6 C 11.4 6.4 11.6 7 11.9 7.4 C 12.3 7.8 12.7 8 13.2 8 C 13.8 8 14.2 7.8 14.5 7.4 C 14.9 7 15.1 6.4 15.1 5.6 C 15.1 4.8 14.9 4.2 14.5 3.8 C 14.2 3.4 13.8 3.2 13.2 3.2 C 12.7 3.2 12.3 3.4 11.9 3.8 C 11.6 4.2 11.4 4.8 11.4 5.6 Z M 17 5.6 C 17 4.5 17.3 3.6 18 3.1 C 18.5 2.6 19.1 2.4 19.9 2.4 C 20.8 2.4 21.5 2.7 22 3.2 C 22.6 3.8 22.8 4.5 22.8 5.5 C 22.8 6.3 22.7 7 22.5 7.4 C 22.2 7.9 21.9 8.2 21.4 8.5 C 21 8.7 20.5 8.9 19.9 8.9 C 19 8.9 18.3 8.6 17.8 8 C 17.3 7.5 17 6.7 17 5.6 Z M 18.1 5.6 C 18.1 6.4 18.3 7 18.6 7.4 C 19 7.8 19.4 8 19.9 8 C 20.4 8 20.9 7.8 21.2 7.4 C 21.6 7 21.7 6.4 21.7 5.6 C 21.7 4.8 21.6 4.2 21.2 3.8 C 20.9 3.4 20.4 3.2 19.9 3.2 C 19.4 3.2 19 3.4 18.6 3.8 C 18.3 4.2 18.1 4.8 18.1 5.6 Z M 28.1 8.7 C 28.1 8.7 28.1 7.95 28.1 8 C 27.7 8.6 27.1 8.9 26.4 8.9 C 25.9 8.9 25.4 8.7 25 8.5 C 24.6 8.2 24.3 7.8 24 7.3 C 23.8 6.8 23.7 6.3 23.7 5.6 C 23.7 5 23.8 4.4 24 3.9 C 24.2 3.4 24.5 3 24.9 2.8 C 25.3 2.5 25.8 2.4 26.3 2.4 C 26.7 2.4 27 2.5 27.3 2.6 C 27.6 2.8 27.8 3 28 3.2 C 28.03 3.23 28 0.1 28 0.1 L 29.1 0.1 L 29.1 8.7 L 28.1 8.7 Z M 24.8 5.6 C 24.8 6.4 24.9 7 25.3 7.4 C 25.6 7.8 26 8 26.5 8 C 26.9 8 27.3 7.8 27.6 7.4 C 28 7.1 28.1 6.5 28.1 5.7 C 28.1 4.9 28 4.2 27.6 3.8 C 27.3 3.4 26.9 3.2 26.4 3.2 C 25.9 3.2 25.6 3.4 25.2 3.8 C 24.9 4.2 24.8 4.8 24.8 5.6 Z " stroke="none" fill="#000"/>  </g></svg>