<?xml version="1.0" standalone="no"?><!DOCTYPE svg PUBLIC "-//W3C//DTD SVG 1.1//EN" "http://www.w3.org/Graphics/SVG/1.1/DTD/svg11.dtd"><svg xmlns="http://www.w3.org/2000/svg" version="1.1" width="21.1px" height="20.5px" viewBox="0 -4 21.1 20.5" style="top:-4px">  <desc>Fair</desc>  <defs/>  <g id="Polygon34915">    <path d="M 1.5 8.7 L 1.5 0.1 L 7.2 0.1 L 7.2 1.2 L 2.6 1.2 L 2.6 3.8 L 6.6 3.8 L 6.6 4.8 L 2.6 4.8 L 2.6 8.7 L 1.5 8.7 Z M 12.9 8.7 C 12.8 8.5 12.7 8.3 12.7 8 C 12.3 8.3 11.9 8.5 11.5 8.7 C 11.2 8.8 10.8 8.9 10.4 8.9 C 9.7 8.9 9.2 8.7 8.8 8.4 C 8.4 8 8.2 7.6 8.2 7.1 C 8.2 6.8 8.3 6.5 8.4 6.3 C 8.6 6 8.8 5.8 9 5.7 C 9.2 5.5 9.5 5.4 9.7 5.3 C 10 5.3 10.3 5.2 10.7 5.2 C 11.5 5 12.2 4.9 12.6 4.8 C 12.6 4.6 12.6 4.6 12.6 4.5 C 12.6 4.1 12.5 3.8 12.3 3.6 C 12 3.4 11.6 3.2 11.1 3.2 C 10.6 3.2 10.2 3.3 10 3.5 C 9.7 3.7 9.6 4 9.4 4.4 C 9.4 4.4 8.4 4.3 8.4 4.3 C 8.5 3.8 8.7 3.5 8.9 3.2 C 9.1 2.9 9.4 2.7 9.8 2.6 C 10.2 2.4 10.7 2.4 11.2 2.4 C 11.8 2.4 12.2 2.4 12.5 2.6 C 12.8 2.7 13.1 2.8 13.2 3 C 13.4 3.2 13.5 3.5 13.6 3.8 C 13.6 3.9 13.6 4.3 13.6 4.7 C 13.6 4.7 13.6 6.1 13.6 6.1 C 13.6 7.1 13.7 7.7 13.7 8 C 13.7 8.2 13.8 8.5 14 8.7 C 13.96 8.74 12.9 8.7 12.9 8.7 C 12.9 8.7 12.86 8.74 12.9 8.7 Z M 12.6 5.6 C 12.2 5.8 11.6 5.9 10.8 6 C 10.4 6.1 10.1 6.1 9.9 6.2 C 9.7 6.3 9.6 6.4 9.5 6.6 C 9.4 6.7 9.4 6.9 9.4 7.1 C 9.4 7.3 9.5 7.6 9.7 7.8 C 9.9 8 10.2 8.1 10.6 8.1 C 11 8.1 11.4 8 11.7 7.8 C 12 7.6 12.2 7.4 12.4 7.1 C 12.5 6.8 12.6 6.5 12.6 6 C 12.6 6 12.6 5.6 12.6 5.6 Z M 15.3 1.4 L 15.3 0.1 L 16.3 0.1 L 16.3 1.4 L 15.3 1.4 Z M 15.3 8.7 L 15.3 2.5 L 16.3 2.5 L 16.3 8.7 L 15.3 8.7 Z M 17.9 8.7 L 17.9 2.5 L 18.9 2.5 C 18.9 2.5 18.87 3.46 18.9 3.5 C 19.1 3 19.3 2.7 19.5 2.6 C 19.7 2.4 20 2.4 20.2 2.4 C 20.6 2.4 20.9 2.5 21.3 2.7 C 21.3 2.7 20.9 3.7 20.9 3.7 C 20.7 3.5 20.4 3.5 20.2 3.5 C 19.9 3.5 19.7 3.5 19.5 3.7 C 19.4 3.8 19.2 4 19.1 4.2 C 19 4.6 19 5 19 5.5 C 18.97 5.48 19 8.7 19 8.7 L 17.9 8.7 Z " stroke="none" fill="#000"/>  </g></svg>