<?xml version="1.0" standalone="no"?><!DOCTYPE svg PUBLIC "-//W3C//DTD SVG 1.1//EN" "http://www.w3.org/Graphics/SVG/1.1/DTD/svg11.dtd"><svg xmlns="http://www.w3.org/2000/svg" version="1.1" width="26px" height="20.5px" viewBox="0 -4 26 20.5" style="top:-4px">  <desc>Poor</desc>  <defs/>  <g id="Polygon34650">    <path d="M 1.2 8.7 L 1.2 0.1 C 1.2 0.1 4.49 0.15 4.5 0.1 C 5.1 0.1 5.5 0.2 5.8 0.2 C 6.2 0.3 6.6 0.4 6.9 0.6 C 7.1 0.8 7.4 1.1 7.5 1.5 C 7.7 1.8 7.8 2.2 7.8 2.6 C 7.8 3.4 7.6 4 7.1 4.5 C 6.6 5 5.8 5.2 4.6 5.2 C 4.59 5.24 2.4 5.2 2.4 5.2 L 2.4 8.7 L 1.2 8.7 Z M 2.4 4.2 C 2.4 4.2 4.6 4.23 4.6 4.2 C 5.3 4.2 5.9 4.1 6.2 3.8 C 6.5 3.5 6.6 3.2 6.6 2.7 C 6.6 2.3 6.5 2 6.4 1.7 C 6.2 1.5 5.9 1.3 5.6 1.2 C 5.4 1.2 5.1 1.2 4.6 1.2 C 4.58 1.16 2.4 1.2 2.4 1.2 L 2.4 4.2 Z M 8.7 5.6 C 8.7 4.5 9 3.6 9.7 3.1 C 10.2 2.6 10.9 2.4 11.6 2.4 C 12.5 2.4 13.2 2.7 13.7 3.2 C 14.3 3.8 14.6 4.5 14.6 5.5 C 14.6 6.3 14.4 7 14.2 7.4 C 14 7.9 13.6 8.2 13.1 8.5 C 12.7 8.7 12.2 8.9 11.6 8.9 C 10.8 8.9 10.1 8.6 9.5 8 C 9 7.5 8.7 6.7 8.7 5.6 Z M 9.8 5.6 C 9.8 6.4 10 7 10.3 7.4 C 10.7 7.8 11.1 8 11.6 8 C 12.2 8 12.6 7.8 12.9 7.4 C 13.3 7 13.5 6.4 13.5 5.6 C 13.5 4.8 13.3 4.2 12.9 3.8 C 12.6 3.4 12.2 3.2 11.6 3.2 C 11.1 3.2 10.7 3.4 10.3 3.8 C 10 4.2 9.8 4.8 9.8 5.6 Z M 15.4 5.6 C 15.4 4.5 15.7 3.6 16.4 3.1 C 16.9 2.6 17.5 2.4 18.3 2.4 C 19.2 2.4 19.9 2.7 20.4 3.2 C 21 3.8 21.2 4.5 21.2 5.5 C 21.2 6.3 21.1 7 20.9 7.4 C 20.6 7.9 20.3 8.2 19.8 8.5 C 19.4 8.7 18.9 8.9 18.3 8.9 C 17.4 8.9 16.7 8.6 16.2 8 C 15.7 7.5 15.4 6.7 15.4 5.6 Z M 16.5 5.6 C 16.5 6.4 16.7 7 17 7.4 C 17.3 7.8 17.8 8 18.3 8 C 18.8 8 19.3 7.8 19.6 7.4 C 20 7 20.1 6.4 20.1 5.6 C 20.1 4.8 20 4.2 19.6 3.8 C 19.3 3.4 18.8 3.2 18.3 3.2 C 17.8 3.2 17.3 3.4 17 3.8 C 16.7 4.2 16.5 4.8 16.5 5.6 Z M 22.5 8.7 L 22.5 2.5 L 23.4 2.5 C 23.4 2.5 23.4 3.46 23.4 3.5 C 23.6 3 23.9 2.7 24.1 2.6 C 24.3 2.4 24.5 2.4 24.7 2.4 C 25.1 2.4 25.5 2.5 25.8 2.7 C 25.8 2.7 25.5 3.7 25.5 3.7 C 25.2 3.5 25 3.5 24.7 3.5 C 24.5 3.5 24.3 3.5 24.1 3.7 C 23.9 3.8 23.8 4 23.7 4.2 C 23.6 4.6 23.5 5 23.5 5.5 C 23.51 5.48 23.5 8.7 23.5 8.7 L 22.5 8.7 Z " stroke="none" fill="#000"/>  </g></svg>