<?xml version="1.0" standalone="no"?><!DOCTYPE svg PUBLIC "-//W3C//DTD SVG 1.1//EN" "http://www.w3.org/Graphics/SVG/1.1/DTD/svg11.dtd"><svg xmlns="http://www.w3.org/2000/svg" version="1.1" width="241px" height="79.5px" viewBox="0 -19 241 79.5" style="top:-19px">  <desc>End Point Assessment Assessment of Occupational Competence Qualification Design and Certification</desc>  <defs/>  <g id="Polygon27636">    <path d="M 18 39.5 L 21.3 30.9 L 22.5 30.9 L 26 39.5 L 24.7 39.5 L 23.7 36.9 L 20.1 36.9 L 19.2 39.5 L 18 39.5 Z M 20.5 36 L 23.4 36 C 23.4 36 22.48 33.59 22.5 33.6 C 22.2 32.9 22 32.3 21.9 31.8 C 21.8 32.4 21.6 32.9 21.4 33.5 C 21.4 33.45 20.5 36 20.5 36 Z M 26.4 37.6 C 26.4 37.6 27.4 37.5 27.4 37.5 C 27.5 37.9 27.6 38.2 27.9 38.4 C 28.2 38.7 28.5 38.8 29 38.8 C 29.5 38.8 29.9 38.7 30.1 38.5 C 30.3 38.3 30.5 38 30.5 37.8 C 30.5 37.5 30.4 37.4 30.1 37.2 C 30 37.1 29.6 37 29.1 36.9 C 28.3 36.7 27.8 36.5 27.5 36.4 C 27.2 36.2 26.9 36 26.8 35.8 C 26.6 35.5 26.5 35.2 26.5 34.9 C 26.5 34.7 26.6 34.4 26.7 34.2 C 26.9 33.9 27 33.7 27.3 33.6 C 27.4 33.4 27.6 33.3 27.9 33.3 C 28.2 33.2 28.5 33.1 28.8 33.1 C 29.3 33.1 29.8 33.2 30.1 33.3 C 30.5 33.5 30.8 33.7 30.9 33.9 C 31.1 34.2 31.2 34.5 31.3 34.9 C 31.3 34.9 30.3 35 30.3 35 C 30.2 34.7 30.1 34.5 29.9 34.3 C 29.6 34.1 29.3 34 28.9 34 C 28.4 34 28.1 34.1 27.9 34.2 C 27.7 34.4 27.6 34.6 27.6 34.8 C 27.6 34.9 27.6 35.1 27.7 35.2 C 27.8 35.3 27.9 35.4 28.1 35.5 C 28.2 35.5 28.5 35.6 29 35.7 C 29.8 35.9 30.3 36.1 30.6 36.2 C 30.9 36.3 31.1 36.5 31.3 36.8 C 31.5 37 31.5 37.3 31.5 37.7 C 31.5 38 31.4 38.4 31.2 38.7 C 31 39 30.7 39.2 30.3 39.4 C 30 39.6 29.5 39.6 29 39.6 C 28.2 39.6 27.6 39.5 27.2 39.1 C 26.8 38.8 26.5 38.3 26.4 37.6 Z M 32.4 37.6 C 32.4 37.6 33.4 37.5 33.4 37.5 C 33.5 37.9 33.6 38.2 33.9 38.4 C 34.2 38.7 34.5 38.8 35 38.8 C 35.5 38.8 35.9 38.7 36.1 38.5 C 36.3 38.3 36.5 38 36.5 37.8 C 36.5 37.5 36.4 37.4 36.1 37.2 C 36 37.1 35.6 37 35.1 36.9 C 34.3 36.7 33.8 36.5 33.5 36.4 C 33.2 36.2 32.9 36 32.8 35.8 C 32.6 35.5 32.5 35.2 32.5 34.9 C 32.5 34.7 32.6 34.4 32.7 34.2 C 32.9 33.9 33 33.7 33.3 33.6 C 33.4 33.4 33.6 33.3 33.9 33.3 C 34.2 33.2 34.5 33.1 34.8 33.1 C 35.3 33.1 35.8 33.2 36.1 33.3 C 36.5 33.5 36.8 33.7 36.9 33.9 C 37.1 34.2 37.2 34.5 37.3 34.9 C 37.3 34.9 36.3 35 36.3 35 C 36.2 34.7 36.1 34.5 35.9 34.3 C 35.6 34.1 35.3 34 34.9 34 C 34.4 34 34.1 34.1 33.9 34.2 C 33.7 34.4 33.6 34.6 33.6 34.8 C 33.6 34.9 33.6 35.1 33.7 35.2 C 33.8 35.3 33.9 35.4 34.1 35.5 C 34.2 35.5 34.5 35.6 35 35.7 C 35.8 35.9 36.3 36.1 36.6 36.2 C 36.9 36.3 37.1 36.5 37.3 36.8 C 37.5 37 37.5 37.3 37.5 37.7 C 37.5 38 37.4 38.4 37.2 38.7 C 37 39 36.7 39.2 36.3 39.4 C 36 39.6 35.5 39.6 35 39.6 C 34.2 39.6 33.6 39.5 33.2 39.1 C 32.8 38.8 32.5 38.3 32.4 37.6 Z M 43.1 37.5 C 43.1 37.5 44.1 37.6 44.1 37.6 C 44 38.3 43.7 38.8 43.2 39.1 C 42.7 39.5 42.1 39.6 41.4 39.6 C 40.5 39.6 39.8 39.4 39.2 38.8 C 38.7 38.2 38.4 37.5 38.4 36.4 C 38.4 35.4 38.7 34.6 39.3 34 C 39.8 33.4 40.5 33.1 41.3 33.1 C 42.2 33.1 42.9 33.4 43.4 34 C 43.9 34.6 44.2 35.3 44.2 36.4 C 44.2 36.4 44.2 36.5 44.2 36.7 C 44.2 36.7 39.5 36.7 39.5 36.7 C 39.6 37.3 39.8 37.9 40.1 38.2 C 40.5 38.6 40.9 38.8 41.4 38.8 C 41.8 38.8 42.1 38.7 42.4 38.5 C 42.7 38.3 42.9 37.9 43.1 37.5 Z M 39.6 35.8 C 39.6 35.8 43.1 35.8 43.1 35.8 C 43 35.3 42.9 34.9 42.7 34.6 C 42.3 34.2 41.9 34 41.4 34 C 40.9 34 40.5 34.2 40.1 34.5 C 39.8 34.8 39.6 35.2 39.6 35.8 Z M 45 37.6 C 45 37.6 46.1 37.5 46.1 37.5 C 46.1 37.9 46.3 38.2 46.6 38.4 C 46.8 38.7 47.2 38.8 47.7 38.8 C 48.2 38.8 48.5 38.7 48.8 38.5 C 49 38.3 49.1 38 49.1 37.8 C 49.1 37.5 49 37.4 48.8 37.2 C 48.7 37.1 48.3 37 47.7 36.9 C 47 36.7 46.4 36.5 46.1 36.4 C 45.8 36.2 45.6 36 45.5 35.8 C 45.3 35.5 45.2 35.2 45.2 34.9 C 45.2 34.7 45.3 34.4 45.4 34.2 C 45.5 33.9 45.7 33.7 45.9 33.6 C 46.1 33.4 46.3 33.3 46.6 33.3 C 46.9 33.2 47.2 33.1 47.5 33.1 C 48 33.1 48.4 33.2 48.8 33.3 C 49.2 33.5 49.4 33.7 49.6 33.9 C 49.8 34.2 49.9 34.5 50 34.9 C 50 34.9 48.9 35 48.9 35 C 48.9 34.7 48.8 34.5 48.5 34.3 C 48.3 34.1 48 34 47.6 34 C 47.1 34 46.8 34.1 46.6 34.2 C 46.3 34.4 46.2 34.6 46.2 34.8 C 46.2 34.9 46.3 35.1 46.4 35.2 C 46.5 35.3 46.6 35.4 46.8 35.5 C 46.9 35.5 47.2 35.6 47.7 35.7 C 48.5 35.9 49 36.1 49.3 36.2 C 49.6 36.3 49.8 36.5 50 36.8 C 50.1 37 50.2 37.3 50.2 37.7 C 50.2 38 50.1 38.4 49.9 38.7 C 49.7 39 49.4 39.2 49 39.4 C 48.6 39.6 48.2 39.6 47.7 39.6 C 46.9 39.6 46.3 39.5 45.9 39.1 C 45.4 38.8 45.2 38.3 45 37.6 Z M 51 37.6 C 51 37.6 52.1 37.5 52.1 37.5 C 52.1 37.9 52.3 38.2 52.6 38.4 C 52.8 38.7 53.2 38.8 53.7 38.8 C 54.2 38.8 54.5 38.7 54.8 38.5 C 55 38.3 55.1 38 55.1 37.8 C 55.1 37.5 55 37.4 54.8 37.2 C 54.7 37.1 54.3 37 53.7 36.9 C 53 36.7 52.4 36.5 52.1 36.4 C 51.8 36.2 51.6 36 51.5 35.8 C 51.3 35.5 51.2 35.2 51.2 34.9 C 51.2 34.7 51.3 34.4 51.4 34.2 C 51.5 33.9 51.7 33.7 51.9 33.6 C 52.1 33.4 52.3 33.3 52.6 33.3 C 52.9 33.2 53.2 33.1 53.5 33.1 C 54 33.1 54.4 33.2 54.8 33.3 C 55.2 33.5 55.4 33.7 55.6 33.9 C 55.8 34.2 55.9 34.5 56 34.9 C 56 34.9 54.9 35 54.9 35 C 54.9 34.7 54.8 34.5 54.5 34.3 C 54.3 34.1 54 34 53.6 34 C 53.1 34 52.8 34.1 52.6 34.2 C 52.3 34.4 52.2 34.6 52.2 34.8 C 52.2 34.9 52.3 35.1 52.4 35.2 C 52.5 35.3 52.6 35.4 52.8 35.5 C 52.9 35.5 53.2 35.6 53.7 35.7 C 54.5 35.9 55 36.1 55.3 36.2 C 55.6 36.3 55.8 36.5 56 36.8 C 56.1 37 56.2 37.3 56.2 37.7 C 56.2 38 56.1 38.4 55.9 38.7 C 55.7 39 55.4 39.2 55 39.4 C 54.6 39.6 54.2 39.6 53.7 39.6 C 52.9 39.6 52.3 39.5 51.9 39.1 C 51.4 38.8 51.2 38.3 51 37.6 Z M 57.5 39.5 L 57.5 33.3 L 58.4 33.3 C 58.4 33.3 58.41 34.15 58.4 34.2 C 58.6 33.8 58.9 33.6 59.2 33.4 C 59.5 33.2 59.9 33.1 60.3 33.1 C 60.8 33.1 61.1 33.2 61.4 33.4 C 61.7 33.6 61.9 33.9 62.1 34.2 C 62.5 33.5 63.2 33.1 64 33.1 C 64.6 33.1 65.1 33.3 65.4 33.6 C 65.7 34 65.9 34.5 65.9 35.2 C 65.9 35.23 65.9 39.5 65.9 39.5 L 64.9 39.5 C 64.9 39.5 64.85 35.58 64.9 35.6 C 64.9 35.2 64.8 34.9 64.7 34.7 C 64.7 34.5 64.6 34.3 64.4 34.2 C 64.2 34.1 64 34.1 63.7 34.1 C 63.3 34.1 62.9 34.2 62.7 34.5 C 62.4 34.8 62.2 35.2 62.2 35.9 C 62.22 35.88 62.2 39.5 62.2 39.5 L 61.2 39.5 C 61.2 39.5 61.17 35.46 61.2 35.5 C 61.2 35 61.1 34.6 60.9 34.4 C 60.7 34.2 60.5 34.1 60.1 34.1 C 59.8 34.1 59.5 34.1 59.2 34.3 C 59 34.4 58.8 34.7 58.7 35 C 58.6 35.3 58.5 35.7 58.5 36.3 C 58.52 36.27 58.5 39.5 58.5 39.5 L 57.5 39.5 Z M 71.7 37.5 C 71.7 37.5 72.8 37.6 72.8 37.6 C 72.6 38.3 72.3 38.8 71.9 39.1 C 71.4 39.5 70.8 39.6 70.1 39.6 C 69.2 39.6 68.4 39.4 67.9 38.8 C 67.4 38.2 67.1 37.5 67.1 36.4 C 67.1 35.4 67.4 34.6 67.9 34 C 68.5 33.4 69.2 33.1 70 33.1 C 70.9 33.1 71.5 33.4 72.1 34 C 72.6 34.6 72.8 35.3 72.8 36.4 C 72.8 36.4 72.8 36.5 72.8 36.7 C 72.8 36.7 68.2 36.7 68.2 36.7 C 68.2 37.3 68.4 37.9 68.8 38.2 C 69.1 38.6 69.6 38.8 70.1 38.8 C 70.5 38.8 70.8 38.7 71.1 38.5 C 71.3 38.3 71.6 37.9 71.7 37.5 Z M 68.3 35.8 C 68.3 35.8 71.7 35.8 71.7 35.8 C 71.7 35.3 71.6 34.9 71.3 34.6 C 71 34.2 70.6 34 70 34 C 69.5 34 69.1 34.2 68.8 34.5 C 68.5 34.8 68.3 35.2 68.3 35.8 Z M 74.1 39.5 L 74.1 33.3 L 75.1 33.3 C 75.1 33.3 75.09 34.16 75.1 34.2 C 75.5 33.5 76.2 33.1 77.1 33.1 C 77.4 33.1 77.8 33.2 78.1 33.3 C 78.4 33.5 78.7 33.7 78.8 33.9 C 79 34.1 79.1 34.3 79.1 34.6 C 79.2 34.8 79.2 35.2 79.2 35.7 C 79.2 35.67 79.2 39.5 79.2 39.5 L 78.1 39.5 C 78.1 39.5 78.14 35.71 78.1 35.7 C 78.1 35.3 78.1 35 78 34.8 C 77.9 34.5 77.8 34.4 77.6 34.2 C 77.4 34.1 77.1 34.1 76.8 34.1 C 76.4 34.1 76 34.2 75.7 34.5 C 75.4 34.8 75.2 35.3 75.2 36.1 C 75.19 36.1 75.2 39.5 75.2 39.5 L 74.1 39.5 Z M 82.7 38.6 C 82.8 38.6 82.9 38.6 83.1 38.6 C 83.1 38.6 83.3 39.5 83.3 39.5 C 83 39.6 82.7 39.6 82.5 39.6 C 82.1 39.6 81.8 39.5 81.6 39.4 C 81.4 39.3 81.2 39.1 81.1 38.9 C 81 38.7 81 38.3 81 37.7 C 81.01 37.68 81 34.1 81 34.1 L 80.2 34.1 L 80.2 33.3 L 81 33.3 L 81 31.7 L 82.1 31.1 L 82.1 33.3 L 83.1 33.3 L 83.1 34.1 L 82.1 34.1 C 82.1 34.1 82.05 37.74 82.1 37.7 C 82.1 38 82.1 38.2 82.1 38.3 C 82.1 38.4 82.2 38.5 82.3 38.5 C 82.4 38.6 82.5 38.6 82.7 38.6 C 82.7 38.6 82.7 38.6 82.7 38.6 Z M 86.9 36.4 C 86.9 35.2 87.2 34.4 87.9 33.8 C 88.4 33.4 89.1 33.1 89.8 33.1 C 90.7 33.1 91.4 33.4 91.9 34 C 92.5 34.5 92.8 35.3 92.8 36.3 C 92.8 37.1 92.6 37.7 92.4 38.2 C 92.2 38.6 91.8 39 91.3 39.3 C 90.9 39.5 90.4 39.6 89.8 39.6 C 89 39.6 88.3 39.4 87.7 38.8 C 87.2 38.2 86.9 37.4 86.9 36.4 Z M 88 36.4 C 88 37.2 88.2 37.8 88.5 38.2 C 88.9 38.6 89.3 38.8 89.8 38.8 C 90.4 38.8 90.8 38.6 91.1 38.2 C 91.5 37.8 91.7 37.2 91.7 36.4 C 91.7 35.6 91.5 35 91.1 34.6 C 90.8 34.2 90.4 34 89.8 34 C 89.3 34 88.9 34.2 88.5 34.6 C 88.2 35 88 35.6 88 36.4 Z M 94.2 39.5 L 94.2 34.1 L 93.3 34.1 L 93.3 33.3 L 94.2 33.3 C 94.2 33.3 94.24 32.62 94.2 32.6 C 94.2 32.2 94.3 31.9 94.4 31.7 C 94.5 31.4 94.6 31.2 94.9 31 C 95.1 30.8 95.5 30.8 96 30.8 C 96.3 30.8 96.6 30.8 96.9 30.9 C 96.9 30.9 96.8 31.8 96.8 31.8 C 96.6 31.8 96.4 31.7 96.2 31.7 C 95.8 31.7 95.6 31.8 95.5 31.9 C 95.4 32.1 95.3 32.3 95.3 32.7 C 95.29 32.7 95.3 33.3 95.3 33.3 L 96.5 33.3 L 96.5 34.1 L 95.3 34.1 L 95.3 39.5 L 94.2 39.5 Z M 100.3 35.3 C 100.3 33.9 100.7 32.8 101.4 32 C 102.2 31.2 103.2 30.8 104.4 30.8 C 105.2 30.8 105.9 30.9 106.5 31.3 C 107.2 31.7 107.7 32.2 108 32.9 C 108.3 33.6 108.5 34.4 108.5 35.2 C 108.5 36.1 108.3 36.9 108 37.6 C 107.6 38.2 107.1 38.8 106.5 39.1 C 105.8 39.5 105.1 39.6 104.4 39.6 C 103.6 39.6 102.9 39.5 102.2 39.1 C 101.6 38.7 101.1 38.1 100.8 37.5 C 100.4 36.8 100.3 36.1 100.3 35.3 Z M 101.5 35.3 C 101.5 36.4 101.7 37.2 102.3 37.8 C 102.8 38.4 103.5 38.7 104.4 38.7 C 105.2 38.7 105.9 38.4 106.5 37.8 C 107 37.2 107.3 36.3 107.3 35.2 C 107.3 34.5 107.2 33.9 107 33.4 C 106.7 32.9 106.4 32.5 105.9 32.2 C 105.5 31.9 105 31.7 104.4 31.7 C 103.6 31.7 102.9 32 102.3 32.6 C 101.7 33.1 101.5 34 101.5 35.3 Z M 113.9 37.2 C 113.9 37.2 114.9 37.4 114.9 37.4 C 114.8 38.1 114.5 38.6 114.1 39 C 113.6 39.4 113 39.6 112.3 39.6 C 111.5 39.6 110.8 39.4 110.3 38.8 C 109.8 38.2 109.5 37.5 109.5 36.4 C 109.5 35.7 109.6 35.2 109.8 34.6 C 110.1 34.1 110.4 33.8 110.9 33.5 C 111.3 33.3 111.8 33.1 112.3 33.1 C 113 33.1 113.6 33.3 114 33.6 C 114.4 34 114.7 34.5 114.8 35.1 C 114.8 35.1 113.8 35.3 113.8 35.3 C 113.7 34.8 113.5 34.5 113.3 34.3 C 113 34.1 112.7 34 112.4 34 C 111.9 34 111.4 34.2 111.1 34.6 C 110.8 35 110.6 35.6 110.6 36.4 C 110.6 37.2 110.7 37.8 111.1 38.2 C 111.4 38.6 111.8 38.8 112.3 38.8 C 112.7 38.8 113.1 38.6 113.4 38.4 C 113.6 38.1 113.8 37.7 113.9 37.2 Z M 119.9 37.2 C 119.9 37.2 120.9 37.4 120.9 37.4 C 120.8 38.1 120.5 38.6 120.1 39 C 119.6 39.4 119 39.6 118.3 39.6 C 117.5 39.6 116.8 39.4 116.3 38.8 C 115.8 38.2 115.5 37.5 115.5 36.4 C 115.5 35.7 115.6 35.2 115.8 34.6 C 116.1 34.1 116.4 33.8 116.9 33.5 C 117.3 33.3 117.8 33.1 118.3 33.1 C 119 33.1 119.6 33.3 120 33.6 C 120.4 34 120.7 34.5 120.8 35.1 C 120.8 35.1 119.8 35.3 119.8 35.3 C 119.7 34.8 119.5 34.5 119.3 34.3 C 119 34.1 118.7 34 118.4 34 C 117.9 34 117.4 34.2 117.1 34.6 C 116.8 35 116.6 35.6 116.6 36.4 C 116.6 37.2 116.7 37.8 117.1 38.2 C 117.4 38.6 117.8 38.8 118.3 38.8 C 118.7 38.8 119.1 38.6 119.4 38.4 C 119.6 38.1 119.8 37.7 119.9 37.2 Z M 125.9 39.5 C 125.9 39.5 125.91 38.59 125.9 38.6 C 125.4 39.3 124.8 39.6 123.9 39.6 C 123.6 39.6 123.2 39.6 122.9 39.4 C 122.6 39.3 122.3 39.1 122.2 38.9 C 122 38.7 121.9 38.4 121.9 38.1 C 121.8 37.9 121.8 37.6 121.8 37.1 C 121.8 37.13 121.8 33.3 121.8 33.3 L 122.9 33.3 C 122.9 33.3 122.86 36.73 122.9 36.7 C 122.9 37.3 122.9 37.7 122.9 37.8 C 123 38.1 123.1 38.3 123.3 38.5 C 123.6 38.7 123.8 38.7 124.1 38.7 C 124.5 38.7 124.8 38.7 125 38.5 C 125.3 38.3 125.5 38.1 125.6 37.8 C 125.7 37.5 125.8 37.1 125.8 36.6 C 125.79 36.61 125.8 33.3 125.8 33.3 L 126.8 33.3 L 126.8 39.5 L 125.9 39.5 Z M 128.5 41.9 L 128.5 33.3 L 129.5 33.3 C 129.5 33.3 129.46 34.09 129.5 34.1 C 129.7 33.8 129.9 33.5 130.2 33.4 C 130.5 33.2 130.9 33.1 131.3 33.1 C 131.8 33.1 132.3 33.3 132.7 33.5 C 133.1 33.8 133.4 34.2 133.6 34.7 C 133.8 35.2 133.9 35.7 133.9 36.3 C 133.9 37 133.8 37.6 133.6 38.1 C 133.3 38.6 133 39 132.6 39.2 C 132.1 39.5 131.7 39.6 131.2 39.6 C 130.8 39.6 130.5 39.6 130.2 39.4 C 130 39.3 129.7 39.1 129.6 38.9 C 129.56 38.86 129.6 41.9 129.6 41.9 L 128.5 41.9 Z M 129.5 36.4 C 129.5 37.2 129.6 37.8 129.9 38.2 C 130.3 38.6 130.7 38.8 131.1 38.8 C 131.6 38.8 132 38.6 132.3 38.2 C 132.7 37.8 132.8 37.2 132.8 36.3 C 132.8 35.5 132.7 34.9 132.3 34.6 C 132 34.2 131.6 34 131.2 34 C 130.7 34 130.3 34.2 130 34.6 C 129.6 35 129.5 35.6 129.5 36.4 Z M 139.4 39.5 C 139.3 39.3 139.3 39 139.2 38.7 C 138.8 39.1 138.5 39.3 138.1 39.4 C 137.7 39.6 137.4 39.6 136.9 39.6 C 136.3 39.6 135.7 39.5 135.4 39.1 C 135 38.8 134.8 38.4 134.8 37.9 C 134.8 37.6 134.9 37.3 135 37 C 135.2 36.8 135.3 36.6 135.6 36.4 C 135.8 36.3 136 36.2 136.3 36.1 C 136.5 36 136.8 36 137.3 35.9 C 138.1 35.8 138.7 35.7 139.1 35.6 C 139.2 35.4 139.2 35.3 139.2 35.3 C 139.2 34.8 139.1 34.5 138.9 34.4 C 138.6 34.1 138.2 34 137.7 34 C 137.2 34 136.8 34.1 136.6 34.3 C 136.3 34.4 136.1 34.8 136 35.2 C 136 35.2 135 35.1 135 35.1 C 135.1 34.6 135.2 34.3 135.5 34 C 135.7 33.7 136 33.5 136.4 33.4 C 136.8 33.2 137.3 33.1 137.8 33.1 C 138.3 33.1 138.8 33.2 139.1 33.3 C 139.4 33.4 139.7 33.6 139.8 33.8 C 140 34 140.1 34.2 140.2 34.5 C 140.2 34.7 140.2 35 140.2 35.5 C 140.2 35.5 140.2 36.9 140.2 36.9 C 140.2 37.9 140.2 38.5 140.3 38.8 C 140.3 39 140.4 39.3 140.5 39.5 C 140.55 39.5 139.4 39.5 139.4 39.5 C 139.4 39.5 139.45 39.5 139.4 39.5 Z M 139.1 36.4 C 138.8 36.5 138.2 36.7 137.4 36.8 C 137 36.8 136.7 36.9 136.5 37 C 136.3 37.1 136.2 37.2 136.1 37.3 C 136 37.5 135.9 37.6 135.9 37.8 C 135.9 38.1 136 38.3 136.3 38.5 C 136.5 38.7 136.8 38.8 137.2 38.8 C 137.6 38.8 138 38.7 138.3 38.5 C 138.6 38.4 138.8 38.1 139 37.8 C 139.1 37.6 139.1 37.2 139.1 36.8 C 139.1 36.8 139.1 36.4 139.1 36.4 Z M 143.7 38.6 C 143.8 38.6 144 38.6 144.2 38.6 C 144.2 38.6 144.3 39.5 144.3 39.5 C 144 39.6 143.7 39.6 143.5 39.6 C 143.1 39.6 142.8 39.5 142.6 39.4 C 142.4 39.3 142.3 39.1 142.2 38.9 C 142.1 38.7 142 38.3 142 37.7 C 142.04 37.68 142 34.1 142 34.1 L 141.3 34.1 L 141.3 33.3 L 142 33.3 L 142 31.7 L 143.1 31.1 L 143.1 33.3 L 144.2 33.3 L 144.2 34.1 L 143.1 34.1 C 143.1 34.1 143.09 37.74 143.1 37.7 C 143.1 38 143.1 38.2 143.1 38.3 C 143.2 38.4 143.2 38.5 143.3 38.5 C 143.4 38.6 143.5 38.6 143.7 38.6 C 143.7 38.6 143.7 38.6 143.7 38.6 Z M 145.2 32.1 L 145.2 30.9 L 146.2 30.9 L 146.2 32.1 L 145.2 32.1 Z M 145.2 39.5 L 145.2 33.3 L 146.2 33.3 L 146.2 39.5 L 145.2 39.5 Z M 147.5 36.4 C 147.5 35.2 147.8 34.4 148.4 33.8 C 149 33.4 149.6 33.1 150.4 33.1 C 151.2 33.1 151.9 33.4 152.5 34 C 153 34.5 153.3 35.3 153.3 36.3 C 153.3 37.1 153.2 37.7 152.9 38.2 C 152.7 38.6 152.3 39 151.9 39.3 C 151.4 39.5 150.9 39.6 150.4 39.6 C 149.5 39.6 148.8 39.4 148.3 38.8 C 147.7 38.2 147.5 37.4 147.5 36.4 Z M 148.5 36.4 C 148.5 37.2 148.7 37.8 149.1 38.2 C 149.4 38.6 149.8 38.8 150.4 38.8 C 150.9 38.8 151.3 38.6 151.7 38.2 C 152 37.8 152.2 37.2 152.2 36.4 C 152.2 35.6 152 35 151.7 34.6 C 151.3 34.2 150.9 34 150.4 34 C 149.8 34 149.4 34.2 149.1 34.6 C 148.7 35 148.5 35.6 148.5 36.4 Z M 154.5 39.5 L 154.5 33.3 L 155.5 33.3 C 155.5 33.3 155.47 34.16 155.5 34.2 C 155.9 33.5 156.6 33.1 157.5 33.1 C 157.8 33.1 158.2 33.2 158.5 33.3 C 158.8 33.5 159 33.7 159.2 33.9 C 159.3 34.1 159.5 34.3 159.5 34.6 C 159.6 34.8 159.6 35.2 159.6 35.7 C 159.58 35.67 159.6 39.5 159.6 39.5 L 158.5 39.5 C 158.5 39.5 158.52 35.71 158.5 35.7 C 158.5 35.3 158.5 35 158.4 34.8 C 158.3 34.5 158.2 34.4 158 34.2 C 157.8 34.1 157.5 34.1 157.2 34.1 C 156.8 34.1 156.4 34.2 156.1 34.5 C 155.7 34.8 155.6 35.3 155.6 36.1 C 155.58 36.1 155.6 39.5 155.6 39.5 L 154.5 39.5 Z M 165.5 39.5 C 165.4 39.3 165.3 39 165.3 38.7 C 164.9 39.1 164.5 39.3 164.1 39.4 C 163.8 39.6 163.4 39.6 163 39.6 C 162.3 39.6 161.8 39.5 161.4 39.1 C 161 38.8 160.8 38.4 160.8 37.9 C 160.8 37.6 160.9 37.3 161 37 C 161.2 36.8 161.4 36.6 161.6 36.4 C 161.8 36.3 162.1 36.2 162.4 36.1 C 162.6 36 162.9 36 163.3 35.9 C 164.1 35.8 164.8 35.7 165.2 35.6 C 165.2 35.4 165.2 35.3 165.2 35.3 C 165.2 34.8 165.1 34.5 164.9 34.4 C 164.6 34.1 164.2 34 163.7 34 C 163.2 34 162.8 34.1 162.6 34.3 C 162.3 34.4 162.2 34.8 162.1 35.2 C 162.1 35.2 161 35.1 161 35.1 C 161.1 34.6 161.3 34.3 161.5 34 C 161.7 33.7 162 33.5 162.4 33.4 C 162.8 33.2 163.3 33.1 163.8 33.1 C 164.4 33.1 164.8 33.2 165.1 33.3 C 165.5 33.4 165.7 33.6 165.9 33.8 C 166 34 166.1 34.2 166.2 34.5 C 166.2 34.7 166.2 35 166.2 35.5 C 166.2 35.5 166.2 36.9 166.2 36.9 C 166.2 37.9 166.3 38.5 166.3 38.8 C 166.3 39 166.4 39.3 166.6 39.5 C 166.57 39.5 165.5 39.5 165.5 39.5 C 165.5 39.5 165.47 39.5 165.5 39.5 Z M 165.2 36.4 C 164.8 36.5 164.2 36.7 163.4 36.8 C 163 36.8 162.7 36.9 162.5 37 C 162.3 37.1 162.2 37.2 162.1 37.3 C 162 37.5 162 37.6 162 37.8 C 162 38.1 162.1 38.3 162.3 38.5 C 162.5 38.7 162.8 38.8 163.2 38.8 C 163.6 38.8 164 38.7 164.3 38.5 C 164.6 38.4 164.9 38.1 165 37.8 C 165.1 37.6 165.2 37.2 165.2 36.8 C 165.2 36.8 165.2 36.4 165.2 36.4 Z M 167.8 39.5 L 167.8 30.9 L 168.9 30.9 L 168.9 39.5 L 167.8 39.5 Z M 180 36.5 C 180 36.5 181.1 36.8 181.1 36.8 C 180.9 37.7 180.4 38.4 179.8 38.9 C 179.2 39.4 178.4 39.6 177.6 39.6 C 176.6 39.6 175.9 39.5 175.3 39.1 C 174.7 38.7 174.3 38.2 174 37.4 C 173.7 36.7 173.5 36 173.5 35.1 C 173.5 34.2 173.7 33.5 174 32.8 C 174.4 32.1 174.9 31.6 175.5 31.3 C 176.1 30.9 176.8 30.8 177.6 30.8 C 178.4 30.8 179.1 31 179.7 31.4 C 180.3 31.9 180.7 32.5 181 33.3 C 181 33.3 179.8 33.5 179.8 33.5 C 179.6 32.9 179.4 32.4 179 32.2 C 178.6 31.9 178.1 31.7 177.5 31.7 C 176.9 31.7 176.3 31.9 175.9 32.2 C 175.4 32.5 175.1 33 175 33.5 C 174.8 34 174.7 34.6 174.7 35.1 C 174.7 35.9 174.8 36.5 175 37 C 175.2 37.6 175.5 38 176 38.3 C 176.4 38.5 176.9 38.7 177.5 38.7 C 178.1 38.7 178.6 38.5 179.1 38.1 C 179.5 37.8 179.8 37.2 180 36.5 Z M 182 36.4 C 182 35.2 182.3 34.4 182.9 33.8 C 183.5 33.4 184.1 33.1 184.9 33.1 C 185.8 33.1 186.5 33.4 187 34 C 187.5 34.5 187.8 35.3 187.8 36.3 C 187.8 37.1 187.7 37.7 187.4 38.2 C 187.2 38.6 186.9 39 186.4 39.3 C 185.9 39.5 185.4 39.6 184.9 39.6 C 184 39.6 183.3 39.4 182.8 38.8 C 182.2 38.2 182 37.4 182 36.4 Z M 183.1 36.4 C 183.1 37.2 183.2 37.8 183.6 38.2 C 183.9 38.6 184.4 38.8 184.9 38.8 C 185.4 38.8 185.9 38.6 186.2 38.2 C 186.6 37.8 186.7 37.2 186.7 36.4 C 186.7 35.6 186.6 35 186.2 34.6 C 185.9 34.2 185.4 34 184.9 34 C 184.4 34 183.9 34.2 183.6 34.6 C 183.2 35 183.1 35.6 183.1 36.4 Z M 189 39.5 L 189 33.3 L 190 33.3 C 190 33.3 189.99 34.15 190 34.2 C 190.2 33.8 190.4 33.6 190.8 33.4 C 191.1 33.2 191.5 33.1 191.9 33.1 C 192.3 33.1 192.7 33.2 193 33.4 C 193.3 33.6 193.5 33.9 193.6 34.2 C 194.1 33.5 194.8 33.1 195.6 33.1 C 196.2 33.1 196.6 33.3 197 33.6 C 197.3 34 197.5 34.5 197.5 35.2 C 197.48 35.23 197.5 39.5 197.5 39.5 L 196.4 39.5 C 196.4 39.5 196.43 35.58 196.4 35.6 C 196.4 35.2 196.4 34.9 196.3 34.7 C 196.3 34.5 196.1 34.3 196 34.2 C 195.8 34.1 195.6 34.1 195.3 34.1 C 194.9 34.1 194.5 34.2 194.2 34.5 C 193.9 34.8 193.8 35.2 193.8 35.9 C 193.8 35.88 193.8 39.5 193.8 39.5 L 192.7 39.5 C 192.7 39.5 192.74 35.46 192.7 35.5 C 192.7 35 192.7 34.6 192.5 34.4 C 192.3 34.2 192 34.1 191.6 34.1 C 191.3 34.1 191.1 34.1 190.8 34.3 C 190.6 34.4 190.4 34.7 190.3 35 C 190.2 35.3 190.1 35.7 190.1 36.3 C 190.1 36.27 190.1 39.5 190.1 39.5 L 189 39.5 Z M 199 41.9 L 199 33.3 L 200 33.3 C 200 33.3 200 34.09 200 34.1 C 200.2 33.8 200.5 33.5 200.8 33.4 C 201.1 33.2 201.4 33.1 201.8 33.1 C 202.3 33.1 202.8 33.3 203.2 33.5 C 203.6 33.8 203.9 34.2 204.1 34.7 C 204.3 35.2 204.4 35.7 204.4 36.3 C 204.4 37 204.3 37.6 204.1 38.1 C 203.9 38.6 203.5 39 203.1 39.2 C 202.7 39.5 202.2 39.6 201.7 39.6 C 201.4 39.6 201.1 39.6 200.8 39.4 C 200.5 39.3 200.3 39.1 200.1 38.9 C 200.1 38.86 200.1 41.9 200.1 41.9 L 199 41.9 Z M 200 36.4 C 200 37.2 200.2 37.8 200.5 38.2 C 200.8 38.6 201.2 38.8 201.7 38.8 C 202.1 38.8 202.5 38.6 202.9 38.2 C 203.2 37.8 203.4 37.2 203.4 36.3 C 203.4 35.5 203.2 34.9 202.9 34.6 C 202.6 34.2 202.2 34 201.7 34 C 201.3 34 200.9 34.2 200.5 34.6 C 200.2 35 200 35.6 200 36.4 Z M 210 37.5 C 210 37.5 211.1 37.6 211.1 37.6 C 210.9 38.3 210.6 38.8 210.1 39.1 C 209.6 39.5 209.1 39.6 208.3 39.6 C 207.4 39.6 206.7 39.4 206.2 38.8 C 205.6 38.2 205.4 37.5 205.4 36.4 C 205.4 35.4 205.6 34.6 206.2 34 C 206.7 33.4 207.4 33.1 208.3 33.1 C 209.1 33.1 209.8 33.4 210.3 34 C 210.8 34.6 211.1 35.3 211.1 36.4 C 211.1 36.4 211.1 36.5 211.1 36.7 C 211.1 36.7 206.5 36.7 206.5 36.7 C 206.5 37.3 206.7 37.9 207 38.2 C 207.4 38.6 207.8 38.8 208.3 38.8 C 208.7 38.8 209.1 38.7 209.3 38.5 C 209.6 38.3 209.8 37.9 210 37.5 Z M 206.5 35.8 C 206.5 35.8 210 35.8 210 35.8 C 209.9 35.3 209.8 34.9 209.6 34.6 C 209.3 34.2 208.8 34 208.3 34 C 207.8 34 207.4 34.2 207.1 34.5 C 206.7 34.8 206.5 35.2 206.5 35.8 Z M 214.2 38.6 C 214.3 38.6 214.5 38.6 214.7 38.6 C 214.7 38.6 214.8 39.5 214.8 39.5 C 214.5 39.6 214.3 39.6 214 39.6 C 213.7 39.6 213.4 39.5 213.2 39.4 C 212.9 39.3 212.8 39.1 212.7 38.9 C 212.6 38.7 212.6 38.3 212.6 37.7 C 212.58 37.68 212.6 34.1 212.6 34.1 L 211.8 34.1 L 211.8 33.3 L 212.6 33.3 L 212.6 31.7 L 213.6 31.1 L 213.6 33.3 L 214.7 33.3 L 214.7 34.1 L 213.6 34.1 C 213.6 34.1 213.63 37.74 213.6 37.7 C 213.6 38 213.7 38.2 213.7 38.3 C 213.7 38.4 213.8 38.5 213.9 38.5 C 214 38.6 214.1 38.6 214.2 38.6 C 214.2 38.6 214.2 38.6 214.2 38.6 Z M 220 37.5 C 220 37.5 221.1 37.6 221.1 37.6 C 220.9 38.3 220.6 38.8 220.1 39.1 C 219.7 39.5 219.1 39.6 218.3 39.6 C 217.4 39.6 216.7 39.4 216.2 38.8 C 215.6 38.2 215.4 37.5 215.4 36.4 C 215.4 35.4 215.6 34.6 216.2 34 C 216.7 33.4 217.4 33.1 218.3 33.1 C 219.1 33.1 219.8 33.4 220.3 34 C 220.8 34.6 221.1 35.3 221.1 36.4 C 221.1 36.4 221.1 36.5 221.1 36.7 C 221.1 36.7 216.5 36.7 216.5 36.7 C 216.5 37.3 216.7 37.9 217 38.2 C 217.4 38.6 217.8 38.8 218.3 38.8 C 218.7 38.8 219.1 38.7 219.3 38.5 C 219.6 38.3 219.8 37.9 220 37.5 Z M 216.5 35.8 C 216.5 35.8 220 35.8 220 35.8 C 219.9 35.3 219.8 34.9 219.6 34.6 C 219.3 34.2 218.8 34 218.3 34 C 217.8 34 217.4 34.2 217.1 34.5 C 216.7 34.8 216.6 35.2 216.5 35.8 Z M 222.4 39.5 L 222.4 33.3 L 223.3 33.3 C 223.3 33.3 223.35 34.16 223.3 34.2 C 223.8 33.5 224.5 33.1 225.3 33.1 C 225.7 33.1 226 33.2 226.4 33.3 C 226.7 33.5 226.9 33.7 227.1 33.9 C 227.2 34.1 227.3 34.3 227.4 34.6 C 227.4 34.8 227.5 35.2 227.5 35.7 C 227.45 35.67 227.5 39.5 227.5 39.5 L 226.4 39.5 C 226.4 39.5 226.4 35.71 226.4 35.7 C 226.4 35.3 226.4 35 226.3 34.8 C 226.2 34.5 226 34.4 225.8 34.2 C 225.6 34.1 225.4 34.1 225.1 34.1 C 224.7 34.1 224.3 34.2 223.9 34.5 C 223.6 34.8 223.5 35.3 223.5 36.1 C 223.45 36.1 223.5 39.5 223.5 39.5 L 222.4 39.5 Z M 233.1 37.2 C 233.1 37.2 234.2 37.4 234.2 37.4 C 234.1 38.1 233.8 38.6 233.3 39 C 232.8 39.4 232.3 39.6 231.6 39.6 C 230.7 39.6 230 39.4 229.5 38.8 C 229 38.2 228.7 37.5 228.7 36.4 C 228.7 35.7 228.9 35.2 229.1 34.6 C 229.3 34.1 229.6 33.8 230.1 33.5 C 230.6 33.3 231 33.1 231.6 33.1 C 232.3 33.1 232.8 33.3 233.2 33.6 C 233.7 34 233.9 34.5 234.1 35.1 C 234.1 35.1 233 35.3 233 35.3 C 232.9 34.8 232.8 34.5 232.5 34.3 C 232.3 34.1 232 34 231.6 34 C 231.1 34 230.7 34.2 230.3 34.6 C 230 35 229.8 35.6 229.8 36.4 C 229.8 37.2 230 37.8 230.3 38.2 C 230.6 38.6 231.1 38.8 231.6 38.8 C 232 38.8 232.3 38.6 232.6 38.4 C 232.9 38.1 233.1 37.7 233.1 37.2 Z M 239.3 37.5 C 239.3 37.5 240.4 37.6 240.4 37.6 C 240.2 38.3 239.9 38.8 239.5 39.1 C 239 39.5 238.4 39.6 237.7 39.6 C 236.8 39.6 236.1 39.4 235.5 38.8 C 235 38.2 234.7 37.5 234.7 36.4 C 234.7 35.4 235 34.6 235.5 34 C 236.1 33.4 236.8 33.1 237.6 33.1 C 238.5 33.1 239.1 33.4 239.7 34 C 240.2 34.6 240.5 35.3 240.5 36.4 C 240.5 36.4 240.5 36.5 240.5 36.7 C 240.5 36.7 235.8 36.7 235.8 36.7 C 235.8 37.3 236 37.9 236.4 38.2 C 236.7 38.6 237.2 38.8 237.7 38.8 C 238.1 38.8 238.4 38.7 238.7 38.5 C 239 38.3 239.2 37.9 239.3 37.5 Z M 235.9 35.8 C 235.9 35.8 239.3 35.8 239.3 35.8 C 239.3 35.3 239.2 34.9 238.9 34.6 C 238.6 34.2 238.2 34 237.6 34 C 237.2 34 236.7 34.2 236.4 34.5 C 236.1 34.8 235.9 35.2 235.9 35.8 Z " stroke="none" fill="#000"/>  </g>  <g id="Polygon27635">    <path d="M 1.6 31.7 C 1.6 31.2 1.7 30.7 1.9 30.2 C 2.1 29.7 2.4 29.3 2.8 29 C 3.1 28.6 3.5 28.3 4 28.1 C 4.5 27.9 5 27.8 5.5 27.8 C 6 27.8 6.5 27.9 7 28.1 C 7.5 28.3 7.9 28.6 8.3 29 C 8.6 29.3 8.9 29.7 9.1 30.2 C 9.3 30.7 9.4 31.2 9.4 31.7 C 9.4 32.3 9.3 32.8 9.1 33.2 C 8.9 33.7 8.6 34.1 8.3 34.5 C 7.9 34.8 7.5 35.1 7 35.3 C 6.5 35.5 6 35.6 5.5 35.6 C 5 35.6 4.5 35.5 4 35.3 C 3.5 35.1 3.1 34.8 2.8 34.5 C 2.4 34.1 2.1 33.7 1.9 33.2 C 1.7 32.8 1.6 32.3 1.6 31.7 Z " stroke="none" fill="#f28620"/>  </g>  <g id="Polygon27634">    <path d="M 18.9 22 L 18.9 13.4 L 25.2 13.4 L 25.2 14.4 L 20.1 14.4 L 20.1 17.1 L 24.8 17.1 L 24.8 18.1 L 20.1 18.1 L 20.1 21 L 25.4 21 L 25.4 22 L 18.9 22 Z M 26.8 22 L 26.8 15.8 L 27.7 15.8 C 27.7 15.8 27.74 16.66 27.7 16.7 C 28.2 16 28.9 15.6 29.7 15.6 C 30.1 15.6 30.4 15.7 30.8 15.8 C 31.1 16 31.3 16.2 31.5 16.4 C 31.6 16.6 31.7 16.8 31.8 17.1 C 31.8 17.3 31.9 17.7 31.9 18.2 C 31.85 18.17 31.9 22 31.9 22 L 30.8 22 C 30.8 22 30.8 18.21 30.8 18.2 C 30.8 17.8 30.8 17.5 30.7 17.3 C 30.6 17 30.4 16.9 30.2 16.7 C 30 16.6 29.8 16.6 29.5 16.6 C 29.1 16.6 28.7 16.7 28.3 17 C 28 17.3 27.8 17.8 27.8 18.6 C 27.85 18.6 27.8 22 27.8 22 L 26.8 22 Z M 37.5 22 C 37.5 22 37.51 21.21 37.5 21.2 C 37.1 21.8 36.5 22.1 35.8 22.1 C 35.3 22.1 34.8 22 34.4 21.7 C 34 21.5 33.7 21.1 33.4 20.6 C 33.2 20.1 33.1 19.5 33.1 18.9 C 33.1 18.3 33.2 17.7 33.4 17.2 C 33.6 16.7 33.9 16.3 34.3 16 C 34.7 15.8 35.2 15.6 35.7 15.6 C 36.1 15.6 36.4 15.7 36.7 15.9 C 37 16 37.3 16.2 37.4 16.5 C 37.44 16.49 37.4 13.4 37.4 13.4 L 38.5 13.4 L 38.5 22 L 37.5 22 Z M 34.2 18.9 C 34.2 19.7 34.3 20.3 34.7 20.7 C 35 21.1 35.4 21.3 35.9 21.3 C 36.3 21.3 36.7 21.1 37 20.7 C 37.4 20.3 37.5 19.8 37.5 19 C 37.5 18.1 37.4 17.5 37 17.1 C 36.7 16.7 36.3 16.5 35.8 16.5 C 35.3 16.5 35 16.7 34.6 17.1 C 34.3 17.5 34.2 18.1 34.2 18.9 Z M 39.7 19.4 L 39.7 18.4 L 43 18.4 L 43 19.4 L 39.7 19.4 Z M 44.3 22 L 44.3 13.4 C 44.3 13.4 47.51 13.41 47.5 13.4 C 48.1 13.4 48.5 13.4 48.8 13.5 C 49.2 13.6 49.6 13.7 49.9 13.9 C 50.2 14.1 50.4 14.4 50.6 14.7 C 50.7 15.1 50.8 15.5 50.8 15.9 C 50.8 16.6 50.6 17.2 50.1 17.7 C 49.7 18.3 48.8 18.5 47.6 18.5 C 47.61 18.51 45.4 18.5 45.4 18.5 L 45.4 22 L 44.3 22 Z M 45.4 17.5 C 45.4 17.5 47.63 17.49 47.6 17.5 C 48.4 17.5 48.9 17.4 49.2 17.1 C 49.5 16.8 49.7 16.4 49.7 15.9 C 49.7 15.6 49.6 15.3 49.4 15 C 49.2 14.8 49 14.6 48.7 14.5 C 48.5 14.4 48.1 14.4 47.6 14.4 C 47.61 14.42 45.4 14.4 45.4 14.4 L 45.4 17.5 Z M 51.8 18.9 C 51.8 17.7 52.1 16.9 52.7 16.3 C 53.2 15.9 53.9 15.6 54.7 15.6 C 55.5 15.6 56.2 15.9 56.8 16.5 C 57.3 17 57.6 17.8 57.6 18.8 C 57.6 19.6 57.5 20.2 57.2 20.7 C 57 21.1 56.6 21.5 56.2 21.8 C 55.7 22 55.2 22.1 54.7 22.1 C 53.8 22.1 53.1 21.9 52.6 21.3 C 52 20.7 51.8 19.9 51.8 18.9 Z M 52.8 18.9 C 52.8 19.7 53 20.3 53.4 20.7 C 53.7 21.1 54.1 21.3 54.7 21.3 C 55.2 21.3 55.6 21.1 56 20.7 C 56.3 20.3 56.5 19.7 56.5 18.9 C 56.5 18.1 56.3 17.5 56 17.1 C 55.6 16.7 55.2 16.5 54.7 16.5 C 54.1 16.5 53.7 16.7 53.4 17.1 C 53 17.5 52.8 18.1 52.8 18.9 Z M 58.8 14.6 L 58.8 13.4 L 59.9 13.4 L 59.9 14.6 L 58.8 14.6 Z M 58.8 22 L 58.8 15.8 L 59.9 15.8 L 59.9 22 L 58.8 22 Z M 61.5 22 L 61.5 15.8 L 62.4 15.8 C 62.4 15.8 62.43 16.66 62.4 16.7 C 62.9 16 63.5 15.6 64.4 15.6 C 64.8 15.6 65.1 15.7 65.4 15.8 C 65.8 16 66 16.2 66.2 16.4 C 66.3 16.6 66.4 16.8 66.5 17.1 C 66.5 17.3 66.5 17.7 66.5 18.2 C 66.54 18.17 66.5 22 66.5 22 L 65.5 22 C 65.5 22 65.48 18.21 65.5 18.2 C 65.5 17.8 65.4 17.5 65.4 17.3 C 65.3 17 65.1 16.9 64.9 16.7 C 64.7 16.6 64.5 16.6 64.2 16.6 C 63.7 16.6 63.4 16.7 63 17 C 62.7 17.3 62.5 17.8 62.5 18.6 C 62.54 18.6 62.5 22 62.5 22 L 61.5 22 Z M 70 21.1 C 70.1 21.1 70.3 21.1 70.5 21.1 C 70.5 21.1 70.6 22 70.6 22 C 70.3 22.1 70 22.1 69.8 22.1 C 69.4 22.1 69.1 22 68.9 21.9 C 68.7 21.8 68.6 21.6 68.5 21.4 C 68.4 21.2 68.3 20.8 68.3 20.2 C 68.35 20.18 68.3 16.6 68.3 16.6 L 67.6 16.6 L 67.6 15.8 L 68.3 15.8 L 68.3 14.2 L 69.4 13.6 L 69.4 15.8 L 70.5 15.8 L 70.5 16.6 L 69.4 16.6 C 69.4 16.6 69.4 20.24 69.4 20.2 C 69.4 20.5 69.4 20.7 69.5 20.8 C 69.5 20.9 69.6 21 69.6 21 C 69.7 21.1 69.8 21.1 70 21.1 C 70 21.1 70 21.1 70 21.1 Z M 73.4 22 L 76.7 13.4 L 77.9 13.4 L 81.4 22 L 80.1 22 L 79.1 19.4 L 75.5 19.4 L 74.6 22 L 73.4 22 Z M 75.8 18.5 L 78.7 18.5 C 78.7 18.5 77.85 16.09 77.8 16.1 C 77.6 15.4 77.4 14.8 77.2 14.3 C 77.1 14.9 77 15.4 76.8 16 C 76.78 15.95 75.8 18.5 75.8 18.5 Z M 81.7 20.1 C 81.7 20.1 82.8 20 82.8 20 C 82.8 20.4 83 20.7 83.3 20.9 C 83.5 21.2 83.9 21.3 84.4 21.3 C 84.9 21.3 85.2 21.2 85.5 21 C 85.7 20.8 85.8 20.5 85.8 20.3 C 85.8 20 85.7 19.9 85.5 19.7 C 85.4 19.6 85 19.5 84.4 19.4 C 83.7 19.2 83.1 19 82.8 18.9 C 82.5 18.7 82.3 18.5 82.2 18.3 C 82 18 81.9 17.7 81.9 17.4 C 81.9 17.2 82 16.9 82.1 16.7 C 82.2 16.4 82.4 16.2 82.6 16.1 C 82.8 15.9 83 15.8 83.3 15.8 C 83.6 15.7 83.9 15.6 84.2 15.6 C 84.7 15.6 85.1 15.7 85.5 15.8 C 85.9 16 86.1 16.2 86.3 16.4 C 86.5 16.7 86.6 17 86.7 17.4 C 86.7 17.4 85.6 17.5 85.6 17.5 C 85.6 17.2 85.5 17 85.2 16.8 C 85 16.6 84.7 16.5 84.3 16.5 C 83.8 16.5 83.5 16.6 83.3 16.7 C 83 16.9 82.9 17.1 82.9 17.3 C 82.9 17.4 83 17.6 83.1 17.7 C 83.2 17.8 83.3 17.9 83.5 18 C 83.6 18 83.9 18.1 84.4 18.2 C 85.2 18.4 85.7 18.6 86 18.7 C 86.3 18.8 86.5 19 86.7 19.3 C 86.8 19.5 86.9 19.8 86.9 20.2 C 86.9 20.5 86.8 20.9 86.6 21.2 C 86.4 21.5 86.1 21.7 85.7 21.9 C 85.3 22.1 84.9 22.1 84.4 22.1 C 83.6 22.1 83 22 82.6 21.6 C 82.1 21.3 81.9 20.8 81.7 20.1 Z M 87.7 20.1 C 87.7 20.1 88.8 20 88.8 20 C 88.8 20.4 89 20.7 89.3 20.9 C 89.5 21.2 89.9 21.3 90.4 21.3 C 90.9 21.3 91.2 21.2 91.5 21 C 91.7 20.8 91.8 20.5 91.8 20.3 C 91.8 20 91.7 19.9 91.5 19.7 C 91.4 19.6 91 19.5 90.4 19.4 C 89.7 19.2 89.1 19 88.8 18.9 C 88.5 18.7 88.3 18.5 88.2 18.3 C 88 18 87.9 17.7 87.9 17.4 C 87.9 17.2 88 16.9 88.1 16.7 C 88.2 16.4 88.4 16.2 88.6 16.1 C 88.8 15.9 89 15.8 89.3 15.8 C 89.6 15.7 89.9 15.6 90.2 15.6 C 90.7 15.6 91.1 15.7 91.5 15.8 C 91.9 16 92.1 16.2 92.3 16.4 C 92.5 16.7 92.6 17 92.7 17.4 C 92.7 17.4 91.6 17.5 91.6 17.5 C 91.6 17.2 91.5 17 91.2 16.8 C 91 16.6 90.7 16.5 90.3 16.5 C 89.8 16.5 89.5 16.6 89.3 16.7 C 89 16.9 88.9 17.1 88.9 17.3 C 88.9 17.4 89 17.6 89.1 17.7 C 89.2 17.8 89.3 17.9 89.5 18 C 89.6 18 89.9 18.1 90.4 18.2 C 91.2 18.4 91.7 18.6 92 18.7 C 92.3 18.8 92.5 19 92.7 19.3 C 92.8 19.5 92.9 19.8 92.9 20.2 C 92.9 20.5 92.8 20.9 92.6 21.2 C 92.4 21.5 92.1 21.7 91.7 21.9 C 91.3 22.1 90.9 22.1 90.4 22.1 C 89.6 22.1 89 22 88.6 21.6 C 88.1 21.3 87.9 20.8 87.7 20.1 Z M 98.4 20 C 98.4 20 99.5 20.1 99.5 20.1 C 99.3 20.8 99 21.3 98.6 21.6 C 98.1 22 97.5 22.1 96.8 22.1 C 95.9 22.1 95.1 21.9 94.6 21.3 C 94.1 20.7 93.8 20 93.8 18.9 C 93.8 17.9 94.1 17.1 94.6 16.5 C 95.2 15.9 95.9 15.6 96.7 15.6 C 97.6 15.6 98.2 15.9 98.8 16.5 C 99.3 17.1 99.6 17.8 99.6 18.9 C 99.6 18.9 99.5 19 99.5 19.2 C 99.5 19.2 94.9 19.2 94.9 19.2 C 94.9 19.8 95.1 20.4 95.5 20.7 C 95.8 21.1 96.3 21.3 96.8 21.3 C 97.2 21.3 97.5 21.2 97.8 21 C 98 20.8 98.3 20.4 98.4 20 Z M 95 18.3 C 95 18.3 98.4 18.3 98.4 18.3 C 98.4 17.8 98.3 17.4 98 17.1 C 97.7 16.7 97.3 16.5 96.7 16.5 C 96.2 16.5 95.8 16.7 95.5 17 C 95.2 17.3 95 17.7 95 18.3 Z M 100.4 20.1 C 100.4 20.1 101.5 20 101.5 20 C 101.5 20.4 101.7 20.7 102 20.9 C 102.2 21.2 102.6 21.3 103.1 21.3 C 103.6 21.3 103.9 21.2 104.2 21 C 104.4 20.8 104.5 20.5 104.5 20.3 C 104.5 20 104.4 19.9 104.2 19.7 C 104 19.6 103.7 19.5 103.1 19.4 C 102.3 19.2 101.8 19 101.5 18.9 C 101.2 18.7 101 18.5 100.8 18.3 C 100.7 18 100.6 17.7 100.6 17.4 C 100.6 17.2 100.7 16.9 100.8 16.7 C 100.9 16.4 101.1 16.2 101.3 16.1 C 101.5 15.9 101.7 15.8 102 15.8 C 102.3 15.7 102.6 15.6 102.9 15.6 C 103.4 15.6 103.8 15.7 104.2 15.8 C 104.5 16 104.8 16.2 105 16.4 C 105.2 16.7 105.3 17 105.4 17.4 C 105.4 17.4 104.3 17.5 104.3 17.5 C 104.3 17.2 104.1 17 103.9 16.8 C 103.7 16.6 103.4 16.5 103 16.5 C 102.5 16.5 102.1 16.6 101.9 16.7 C 101.7 16.9 101.6 17.1 101.6 17.3 C 101.6 17.4 101.7 17.6 101.7 17.7 C 101.8 17.8 102 17.9 102.1 18 C 102.3 18 102.6 18.1 103.1 18.2 C 103.8 18.4 104.3 18.6 104.6 18.7 C 104.9 18.8 105.2 19 105.3 19.3 C 105.5 19.5 105.6 19.8 105.6 20.2 C 105.6 20.5 105.5 20.9 105.3 21.2 C 105.1 21.5 104.8 21.7 104.4 21.9 C 104 22.1 103.6 22.1 103.1 22.1 C 102.3 22.1 101.7 22 101.2 21.6 C 100.8 21.3 100.5 20.8 100.4 20.1 Z M 106.4 20.1 C 106.4 20.1 107.5 20 107.5 20 C 107.5 20.4 107.7 20.7 108 20.9 C 108.2 21.2 108.6 21.3 109.1 21.3 C 109.6 21.3 109.9 21.2 110.2 21 C 110.4 20.8 110.5 20.5 110.5 20.3 C 110.5 20 110.4 19.9 110.2 19.7 C 110 19.6 109.7 19.5 109.1 19.4 C 108.3 19.2 107.8 19 107.5 18.9 C 107.2 18.7 107 18.5 106.8 18.3 C 106.7 18 106.6 17.7 106.6 17.4 C 106.6 17.2 106.7 16.9 106.8 16.7 C 106.9 16.4 107.1 16.2 107.3 16.1 C 107.5 15.9 107.7 15.8 108 15.8 C 108.3 15.7 108.6 15.6 108.9 15.6 C 109.4 15.6 109.8 15.7 110.2 15.8 C 110.5 16 110.8 16.2 111 16.4 C 111.2 16.7 111.3 17 111.4 17.4 C 111.4 17.4 110.3 17.5 110.3 17.5 C 110.3 17.2 110.1 17 109.9 16.8 C 109.7 16.6 109.4 16.5 109 16.5 C 108.5 16.5 108.1 16.6 107.9 16.7 C 107.7 16.9 107.6 17.1 107.6 17.3 C 107.6 17.4 107.7 17.6 107.7 17.7 C 107.8 17.8 108 17.9 108.1 18 C 108.3 18 108.6 18.1 109.1 18.2 C 109.8 18.4 110.3 18.6 110.6 18.7 C 110.9 18.8 111.2 19 111.3 19.3 C 111.5 19.5 111.6 19.8 111.6 20.2 C 111.6 20.5 111.5 20.9 111.3 21.2 C 111.1 21.5 110.8 21.7 110.4 21.9 C 110 22.1 109.6 22.1 109.1 22.1 C 108.3 22.1 107.7 22 107.2 21.6 C 106.8 21.3 106.5 20.8 106.4 20.1 Z M 112.8 22 L 112.8 15.8 L 113.8 15.8 C 113.8 15.8 113.78 16.65 113.8 16.7 C 114 16.3 114.2 16.1 114.6 15.9 C 114.9 15.7 115.3 15.6 115.7 15.6 C 116.1 15.6 116.5 15.7 116.8 15.9 C 117.1 16.1 117.3 16.4 117.4 16.7 C 117.9 16 118.6 15.6 119.3 15.6 C 120 15.6 120.4 15.8 120.8 16.1 C 121.1 16.5 121.3 17 121.3 17.7 C 121.27 17.73 121.3 22 121.3 22 L 120.2 22 C 120.2 22 120.22 18.08 120.2 18.1 C 120.2 17.7 120.2 17.4 120.1 17.2 C 120.1 17 119.9 16.8 119.7 16.7 C 119.6 16.6 119.4 16.6 119.1 16.6 C 118.7 16.6 118.3 16.7 118 17 C 117.7 17.3 117.6 17.7 117.6 18.4 C 117.59 18.38 117.6 22 117.6 22 L 116.5 22 C 116.5 22 116.54 17.96 116.5 18 C 116.5 17.5 116.5 17.1 116.3 16.9 C 116.1 16.7 115.8 16.6 115.4 16.6 C 115.1 16.6 114.9 16.6 114.6 16.8 C 114.4 16.9 114.2 17.2 114.1 17.5 C 114 17.8 113.9 18.2 113.9 18.8 C 113.89 18.77 113.9 22 113.9 22 L 112.8 22 Z M 127.1 20 C 127.1 20 128.2 20.1 128.2 20.1 C 128 20.8 127.7 21.3 127.2 21.6 C 126.8 22 126.2 22.1 125.4 22.1 C 124.5 22.1 123.8 21.9 123.3 21.3 C 122.8 20.7 122.5 20 122.5 18.9 C 122.5 17.9 122.8 17.1 123.3 16.5 C 123.8 15.9 124.5 15.6 125.4 15.6 C 126.2 15.6 126.9 15.9 127.4 16.5 C 128 17.1 128.2 17.8 128.2 18.9 C 128.2 18.9 128.2 19 128.2 19.2 C 128.2 19.2 123.6 19.2 123.6 19.2 C 123.6 19.8 123.8 20.4 124.2 20.7 C 124.5 21.1 124.9 21.3 125.5 21.3 C 125.8 21.3 126.2 21.2 126.4 21 C 126.7 20.8 126.9 20.4 127.1 20 Z M 123.6 18.3 C 123.6 18.3 127.1 18.3 127.1 18.3 C 127.1 17.8 126.9 17.4 126.7 17.1 C 126.4 16.7 125.9 16.5 125.4 16.5 C 124.9 16.5 124.5 16.7 124.2 17 C 123.9 17.3 123.7 17.7 123.6 18.3 Z M 129.5 22 L 129.5 15.8 L 130.5 15.8 C 130.5 15.8 130.46 16.66 130.5 16.7 C 130.9 16 131.6 15.6 132.4 15.6 C 132.8 15.6 133.2 15.7 133.5 15.8 C 133.8 16 134 16.2 134.2 16.4 C 134.3 16.6 134.4 16.8 134.5 17.1 C 134.5 17.3 134.6 17.7 134.6 18.2 C 134.57 18.17 134.6 22 134.6 22 L 133.5 22 C 133.5 22 133.51 18.21 133.5 18.2 C 133.5 17.8 133.5 17.5 133.4 17.3 C 133.3 17 133.2 16.9 133 16.7 C 132.7 16.6 132.5 16.6 132.2 16.6 C 131.8 16.6 131.4 16.7 131.1 17 C 130.7 17.3 130.6 17.8 130.6 18.6 C 130.56 18.6 130.6 22 130.6 22 L 129.5 22 Z M 138 21.1 C 138.1 21.1 138.3 21.1 138.5 21.1 C 138.5 21.1 138.6 22 138.6 22 C 138.3 22.1 138.1 22.1 137.8 22.1 C 137.5 22.1 137.2 22 137 21.9 C 136.7 21.8 136.6 21.6 136.5 21.4 C 136.4 21.2 136.4 20.8 136.4 20.2 C 136.38 20.18 136.4 16.6 136.4 16.6 L 135.6 16.6 L 135.6 15.8 L 136.4 15.8 L 136.4 14.2 L 137.4 13.6 L 137.4 15.8 L 138.5 15.8 L 138.5 16.6 L 137.4 16.6 C 137.4 16.6 137.43 20.24 137.4 20.2 C 137.4 20.5 137.4 20.7 137.5 20.8 C 137.5 20.9 137.6 21 137.7 21 C 137.7 21.1 137.9 21.1 138 21.1 C 138 21.1 138 21.1 138 21.1 Z " stroke="none" fill="#000"/>  </g>  <g id="Polygon27633">    <path d="M 1.6 14.2 C 1.6 13.7 1.7 13.2 1.9 12.7 C 2.1 12.2 2.4 11.8 2.8 11.5 C 3.1 11.1 3.5 10.8 4 10.6 C 4.5 10.4 5 10.3 5.5 10.3 C 6 10.3 6.5 10.4 7 10.6 C 7.5 10.8 7.9 11.1 8.3 11.5 C 8.6 11.8 8.9 12.2 9.1 12.7 C 9.3 13.2 9.4 13.7 9.4 14.2 C 9.4 14.8 9.3 15.3 9.1 15.7 C 8.9 16.2 8.6 16.6 8.3 17 C 7.9 17.3 7.5 17.6 7 17.8 C 6.5 18 6 18.1 5.5 18.1 C 5 18.1 4.5 18 4 17.8 C 3.5 17.6 3.1 17.3 2.8 17 C 2.4 16.6 2.1 16.2 1.9 15.7 C 1.7 15.3 1.6 14.8 1.6 14.2 Z " stroke="none" fill="#f28620"/>  </g></svg>