<?xml version="1.0" standalone="no"?><!DOCTYPE svg PUBLIC "-//W3C//DTD SVG 1.1//EN" "http://www.w3.org/Graphics/SVG/1.1/DTD/svg11.dtd"><svg xmlns="http://www.w3.org/2000/svg" version="1.1" width="49.3px" height="20.5px" viewBox="0 -4 49.3 20.5" style="top:-4px">  <desc>Excellent</desc>  <defs/>  <g id="Polygon35021">    <path d="M 1.6 8.7 L 1.6 0.1 L 7.8 0.1 L 7.8 1.2 L 2.7 1.2 L 2.7 3.8 L 7.5 3.8 L 7.5 4.8 L 2.7 4.8 L 2.7 7.7 L 8 7.7 L 8 8.7 L 1.6 8.7 Z M 8.7 8.7 L 11 5.5 L 8.9 2.5 L 10.2 2.5 C 10.2 2.5 11.18 3.97 11.2 4 C 11.4 4.3 11.5 4.5 11.6 4.7 C 11.8 4.4 11.9 4.2 12.1 4 C 12.09 3.98 13.1 2.5 13.1 2.5 L 14.4 2.5 L 12.2 5.4 L 14.6 8.7 L 13.3 8.7 L 12 6.8 L 11.6 6.3 L 10 8.7 L 8.7 8.7 Z M 19.5 6.5 C 19.5 6.5 20.5 6.6 20.5 6.6 C 20.4 7.3 20.1 7.9 19.7 8.3 C 19.2 8.7 18.6 8.9 17.9 8.9 C 17.1 8.9 16.4 8.6 15.9 8 C 15.4 7.5 15.1 6.7 15.1 5.6 C 15.1 5 15.2 4.4 15.5 3.9 C 15.7 3.4 16 3 16.5 2.8 C 16.9 2.5 17.4 2.4 18 2.4 C 18.6 2.4 19.2 2.5 19.6 2.9 C 20 3.2 20.3 3.7 20.4 4.3 C 20.4 4.3 19.4 4.5 19.4 4.5 C 19.3 4.1 19.1 3.8 18.9 3.6 C 18.6 3.3 18.3 3.2 18 3.2 C 17.5 3.2 17 3.4 16.7 3.8 C 16.4 4.2 16.2 4.8 16.2 5.6 C 16.2 6.5 16.4 7.1 16.7 7.4 C 17 7.8 17.4 8 17.9 8 C 18.3 8 18.7 7.9 19 7.6 C 19.3 7.4 19.4 7 19.5 6.5 Z M 25.7 6.7 C 25.7 6.7 26.8 6.9 26.8 6.9 C 26.6 7.5 26.3 8 25.8 8.3 C 25.4 8.7 24.8 8.9 24.1 8.9 C 23.1 8.9 22.4 8.6 21.9 8 C 21.4 7.5 21.1 6.7 21.1 5.7 C 21.1 4.6 21.4 3.8 21.9 3.2 C 22.4 2.7 23.1 2.4 24 2.4 C 24.8 2.4 25.5 2.7 26 3.2 C 26.6 3.8 26.8 4.6 26.8 5.6 C 26.8 5.7 26.8 5.8 26.8 5.9 C 26.8 5.9 22.2 5.9 22.2 5.9 C 22.2 6.6 22.4 7.1 22.8 7.5 C 23.1 7.8 23.5 8 24.1 8 C 24.4 8 24.8 7.9 25 7.7 C 25.3 7.5 25.5 7.2 25.7 6.7 Z M 22.2 5 C 22.2 5 25.7 5 25.7 5 C 25.7 4.5 25.5 4.1 25.3 3.8 C 25 3.4 24.5 3.2 24 3.2 C 23.5 3.2 23.1 3.4 22.8 3.7 C 22.5 4.1 22.3 4.5 22.2 5 Z M 28.1 8.7 L 28.1 0.1 L 29.1 0.1 L 29.1 8.7 L 28.1 8.7 Z M 30.8 8.7 L 30.8 0.1 L 31.8 0.1 L 31.8 8.7 L 30.8 8.7 Z M 37.7 6.7 C 37.7 6.7 38.8 6.9 38.8 6.9 C 38.6 7.5 38.3 8 37.8 8.3 C 37.4 8.7 36.8 8.9 36.1 8.9 C 35.1 8.9 34.4 8.6 33.9 8 C 33.4 7.5 33.1 6.7 33.1 5.7 C 33.1 4.6 33.4 3.8 33.9 3.2 C 34.4 2.7 35.1 2.4 36 2.4 C 36.8 2.4 37.5 2.7 38 3.2 C 38.6 3.8 38.8 4.6 38.8 5.6 C 38.8 5.7 38.8 5.8 38.8 5.9 C 38.8 5.9 34.2 5.9 34.2 5.9 C 34.2 6.6 34.4 7.1 34.8 7.5 C 35.1 7.8 35.5 8 36.1 8 C 36.5 8 36.8 7.9 37.1 7.7 C 37.3 7.5 37.5 7.2 37.7 6.7 Z M 34.2 5 C 34.2 5 37.7 5 37.7 5 C 37.7 4.5 37.5 4.1 37.3 3.8 C 37 3.4 36.5 3.2 36 3.2 C 35.5 3.2 35.1 3.4 34.8 3.7 C 34.5 4.1 34.3 4.5 34.2 5 Z M 40.1 8.7 L 40.1 2.5 L 41.1 2.5 C 41.1 2.5 41.07 3.4 41.1 3.4 C 41.5 2.7 42.2 2.4 43 2.4 C 43.4 2.4 43.8 2.4 44.1 2.6 C 44.4 2.7 44.6 2.9 44.8 3.1 C 44.9 3.3 45.1 3.6 45.1 3.9 C 45.2 4.1 45.2 4.4 45.2 4.9 C 45.18 4.91 45.2 8.7 45.2 8.7 L 44.1 8.7 C 44.1 8.7 44.12 4.95 44.1 5 C 44.1 4.5 44.1 4.2 44 4 C 43.9 3.8 43.8 3.6 43.6 3.5 C 43.4 3.4 43.1 3.3 42.8 3.3 C 42.4 3.3 42 3.4 41.7 3.7 C 41.3 4 41.2 4.5 41.2 5.3 C 41.17 5.34 41.2 8.7 41.2 8.7 L 40.1 8.7 Z M 48.6 7.8 C 48.8 7.8 48.9 7.8 49.1 7.8 C 49.1 7.8 49.2 8.7 49.2 8.7 C 49 8.8 48.7 8.8 48.5 8.8 C 48.1 8.8 47.8 8.8 47.6 8.6 C 47.3 8.5 47.2 8.4 47.1 8.2 C 47 8 47 7.5 47 6.9 C 46.99 6.91 47 3.3 47 3.3 L 46.2 3.3 L 46.2 2.5 L 47 2.5 L 47 1 L 48 0.3 L 48 2.5 L 49.1 2.5 L 49.1 3.3 L 48 3.3 C 48 3.3 48.04 6.97 48 7 C 48 7.3 48.1 7.5 48.1 7.6 C 48.1 7.6 48.2 7.7 48.3 7.8 C 48.4 7.8 48.5 7.8 48.6 7.8 C 48.6 7.8 48.6 7.8 48.6 7.8 Z " stroke="none" fill="#000"/>  </g></svg>