<?xml version="1.0" standalone="no"?><!DOCTYPE svg PUBLIC "-//W3C//DTD SVG 1.1//EN" "http://www.w3.org/Graphics/SVG/1.1/DTD/svg11.dtd"><svg xmlns="http://www.w3.org/2000/svg" version="1.1" width="226px" height="94.5px" viewBox="0 -19 226 94.5" style="top:-19px">  <desc>Managed Services Training Design and Delivery Learning Specialist Talent</desc>  <defs/>  <g id="Polygon27695">    <path d="M 18.9 57 L 18.9 48.4 L 20 48.4 L 20 56 L 24.2 56 L 24.2 57 L 18.9 57 Z M 29.7 55 C 29.7 55 30.8 55.1 30.8 55.1 C 30.6 55.8 30.3 56.3 29.9 56.6 C 29.4 57 28.8 57.1 28.1 57.1 C 27.2 57.1 26.4 56.9 25.9 56.3 C 25.4 55.7 25.1 55 25.1 53.9 C 25.1 52.9 25.4 52.1 25.9 51.5 C 26.5 50.9 27.2 50.6 28 50.6 C 28.9 50.6 29.5 50.9 30.1 51.5 C 30.6 52.1 30.8 52.8 30.8 53.9 C 30.8 53.9 30.8 54 30.8 54.2 C 30.8 54.2 26.2 54.2 26.2 54.2 C 26.2 54.8 26.4 55.4 26.8 55.7 C 27.1 56.1 27.6 56.3 28.1 56.3 C 28.5 56.3 28.8 56.2 29.1 56 C 29.3 55.8 29.6 55.4 29.7 55 Z M 26.3 53.3 C 26.3 53.3 29.7 53.3 29.7 53.3 C 29.7 52.8 29.6 52.4 29.3 52.1 C 29 51.7 28.6 51.5 28 51.5 C 27.5 51.5 27.1 51.7 26.8 52 C 26.5 52.3 26.3 52.7 26.3 53.3 Z M 36.4 57 C 36.3 56.8 36.2 56.5 36.2 56.2 C 35.8 56.6 35.4 56.8 35.1 56.9 C 34.7 57.1 34.3 57.1 33.9 57.1 C 33.2 57.1 32.7 57 32.3 56.6 C 32 56.3 31.8 55.9 31.8 55.4 C 31.8 55.1 31.9 54.8 32 54.5 C 32.1 54.3 32.3 54.1 32.5 53.9 C 32.8 53.8 33 53.7 33.3 53.6 C 33.5 53.5 33.8 53.5 34.2 53.4 C 35.1 53.3 35.7 53.2 36.1 53.1 C 36.1 52.9 36.1 52.8 36.1 52.8 C 36.1 52.3 36 52 35.8 51.9 C 35.5 51.6 35.1 51.5 34.6 51.5 C 34.1 51.5 33.8 51.6 33.5 51.8 C 33.3 51.9 33.1 52.3 33 52.7 C 33 52.7 32 52.6 32 52.6 C 32.1 52.1 32.2 51.8 32.4 51.5 C 32.6 51.2 33 51 33.4 50.9 C 33.8 50.7 34.2 50.6 34.8 50.6 C 35.3 50.6 35.7 50.7 36.1 50.8 C 36.4 50.9 36.6 51.1 36.8 51.3 C 37 51.5 37.1 51.7 37.1 52 C 37.2 52.2 37.2 52.5 37.2 53 C 37.2 53 37.2 54.4 37.2 54.4 C 37.2 55.4 37.2 56 37.2 56.3 C 37.3 56.5 37.4 56.8 37.5 57 C 37.51 57 36.4 57 36.4 57 C 36.4 57 36.41 57 36.4 57 Z M 36.1 53.9 C 35.7 54 35.2 54.2 34.4 54.3 C 34 54.3 33.6 54.4 33.5 54.5 C 33.3 54.6 33.2 54.7 33.1 54.8 C 33 55 32.9 55.1 32.9 55.3 C 32.9 55.6 33 55.8 33.2 56 C 33.4 56.2 33.8 56.3 34.2 56.3 C 34.6 56.3 34.9 56.2 35.2 56 C 35.6 55.9 35.8 55.6 35.9 55.3 C 36.1 55.1 36.1 54.7 36.1 54.3 C 36.1 54.3 36.1 53.9 36.1 53.9 Z M 38.8 57 L 38.8 50.8 L 39.8 50.8 C 39.8 50.8 39.75 51.72 39.8 51.7 C 40 51.3 40.2 51 40.4 50.8 C 40.6 50.7 40.9 50.6 41.1 50.6 C 41.5 50.6 41.8 50.8 42.2 51 C 42.2 51 41.8 52 41.8 52 C 41.6 51.8 41.3 51.7 41 51.7 C 40.8 51.7 40.6 51.8 40.4 51.9 C 40.2 52.1 40.1 52.3 40 52.5 C 39.9 52.9 39.9 53.3 39.9 53.7 C 39.86 53.74 39.9 57 39.9 57 L 38.8 57 Z M 42.8 57 L 42.8 50.8 L 43.8 50.8 C 43.8 50.8 43.76 51.66 43.8 51.7 C 44.2 51 44.9 50.6 45.7 50.6 C 46.1 50.6 46.5 50.7 46.8 50.8 C 47.1 51 47.3 51.2 47.5 51.4 C 47.6 51.6 47.7 51.8 47.8 52.1 C 47.8 52.3 47.9 52.7 47.9 53.2 C 47.87 53.17 47.9 57 47.9 57 L 46.8 57 C 46.8 57 46.81 53.21 46.8 53.2 C 46.8 52.8 46.8 52.5 46.7 52.3 C 46.6 52 46.5 51.9 46.3 51.7 C 46 51.6 45.8 51.6 45.5 51.6 C 45.1 51.6 44.7 51.7 44.4 52 C 44 52.3 43.9 52.8 43.9 53.6 C 43.86 53.6 43.9 57 43.9 57 L 42.8 57 Z M 49.5 49.6 L 49.5 48.4 L 50.5 48.4 L 50.5 49.6 L 49.5 49.6 Z M 49.5 57 L 49.5 50.8 L 50.5 50.8 L 50.5 57 L 49.5 57 Z M 52.1 57 L 52.1 50.8 L 53.1 50.8 C 53.1 50.8 53.1 51.66 53.1 51.7 C 53.6 51 54.2 50.6 55.1 50.6 C 55.5 50.6 55.8 50.7 56.1 50.8 C 56.4 51 56.7 51.2 56.8 51.4 C 57 51.6 57.1 51.8 57.1 52.1 C 57.2 52.3 57.2 52.7 57.2 53.2 C 57.21 53.17 57.2 57 57.2 57 L 56.2 57 C 56.2 57 56.15 53.21 56.2 53.2 C 56.2 52.8 56.1 52.5 56 52.3 C 55.9 52 55.8 51.9 55.6 51.7 C 55.4 51.6 55.1 51.6 54.9 51.6 C 54.4 51.6 54 51.7 53.7 52 C 53.4 52.3 53.2 52.8 53.2 53.6 C 53.2 53.6 53.2 57 53.2 57 L 52.1 57 Z M 58.6 57.5 C 58.6 57.5 59.7 57.7 59.7 57.7 C 59.7 58 59.8 58.2 60 58.4 C 60.3 58.6 60.6 58.7 61.1 58.7 C 61.6 58.7 61.9 58.6 62.2 58.4 C 62.5 58.2 62.7 57.9 62.8 57.5 C 62.8 57.3 62.8 56.9 62.8 56.2 C 62.4 56.7 61.8 57 61.1 57 C 60.3 57 59.6 56.7 59.1 56.1 C 58.7 55.5 58.4 54.7 58.4 53.9 C 58.4 53.3 58.5 52.7 58.7 52.2 C 59 51.7 59.3 51.3 59.7 51 C 60.1 50.8 60.6 50.6 61.1 50.6 C 61.8 50.6 62.5 50.9 62.9 51.5 C 62.93 51.53 62.9 50.8 62.9 50.8 L 63.9 50.8 C 63.9 50.8 63.9 56.16 63.9 56.2 C 63.9 57.1 63.8 57.8 63.6 58.2 C 63.4 58.6 63.1 58.9 62.7 59.2 C 62.2 59.4 61.7 59.5 61.1 59.5 C 60.3 59.5 59.7 59.4 59.3 59 C 58.8 58.7 58.6 58.2 58.6 57.5 Z M 59.5 53.8 C 59.5 54.6 59.7 55.2 60 55.6 C 60.3 55.9 60.7 56.1 61.2 56.1 C 61.7 56.1 62.1 55.9 62.4 55.6 C 62.8 55.2 62.9 54.6 62.9 53.8 C 62.9 53.1 62.7 52.5 62.4 52.1 C 62.1 51.7 61.7 51.5 61.2 51.5 C 60.7 51.5 60.3 51.7 60 52.1 C 59.7 52.5 59.5 53 59.5 53.8 Z M 68.6 54.2 C 68.6 54.2 69.7 54.1 69.7 54.1 C 69.7 54.6 69.8 54.9 70 55.2 C 70.2 55.5 70.5 55.7 70.9 55.9 C 71.3 56 71.7 56.1 72.2 56.1 C 72.6 56.1 73 56.1 73.3 55.9 C 73.7 55.8 73.9 55.6 74.1 55.4 C 74.2 55.2 74.3 54.9 74.3 54.7 C 74.3 54.4 74.2 54.2 74.1 54 C 73.9 53.8 73.7 53.6 73.3 53.5 C 73.1 53.4 72.6 53.2 71.8 53 C 71 52.8 70.4 52.7 70.1 52.5 C 69.7 52.3 69.4 52 69.2 51.7 C 69 51.4 68.9 51 68.9 50.6 C 68.9 50.2 69 49.8 69.3 49.4 C 69.5 49 69.9 48.8 70.4 48.6 C 70.8 48.4 71.4 48.3 71.9 48.3 C 72.6 48.3 73.1 48.4 73.6 48.6 C 74.1 48.8 74.5 49.1 74.7 49.5 C 75 49.9 75.1 50.3 75.2 50.8 C 75.2 50.8 74.1 50.9 74.1 50.9 C 74 50.4 73.8 50 73.5 49.7 C 73.1 49.4 72.6 49.3 72 49.3 C 71.3 49.3 70.8 49.4 70.5 49.6 C 70.2 49.9 70 50.2 70 50.6 C 70 50.9 70.1 51.1 70.3 51.3 C 70.6 51.5 71.1 51.7 72 51.9 C 73 52.1 73.6 52.3 74 52.5 C 74.5 52.7 74.8 53 75.1 53.4 C 75.3 53.7 75.4 54.1 75.4 54.6 C 75.4 55 75.3 55.5 75 55.9 C 74.8 56.3 74.4 56.6 73.9 56.8 C 73.4 57 72.9 57.1 72.2 57.1 C 71.5 57.1 70.8 57 70.3 56.8 C 69.8 56.6 69.3 56.2 69 55.8 C 68.8 55.3 68.6 54.8 68.6 54.2 Z M 76.8 59.4 L 76.8 50.8 L 77.8 50.8 C 77.8 50.8 77.79 51.59 77.8 51.6 C 78 51.3 78.3 51 78.6 50.9 C 78.8 50.7 79.2 50.6 79.6 50.6 C 80.1 50.6 80.6 50.8 81 51 C 81.4 51.3 81.7 51.7 81.9 52.2 C 82.1 52.7 82.2 53.2 82.2 53.8 C 82.2 54.5 82.1 55.1 81.9 55.6 C 81.7 56.1 81.3 56.5 80.9 56.7 C 80.5 57 80 57.1 79.5 57.1 C 79.2 57.1 78.9 57.1 78.6 56.9 C 78.3 56.8 78.1 56.6 77.9 56.4 C 77.89 56.36 77.9 59.4 77.9 59.4 L 76.8 59.4 Z M 77.8 53.9 C 77.8 54.7 78 55.3 78.3 55.7 C 78.6 56.1 79 56.3 79.5 56.3 C 79.9 56.3 80.3 56.1 80.7 55.7 C 81 55.3 81.2 54.7 81.2 53.8 C 81.2 53 81 52.4 80.7 52.1 C 80.3 51.7 80 51.5 79.5 51.5 C 79.1 51.5 78.7 51.7 78.3 52.1 C 78 52.5 77.8 53.1 77.8 53.9 Z M 87.8 55 C 87.8 55 88.9 55.1 88.9 55.1 C 88.7 55.8 88.4 56.3 87.9 56.6 C 87.4 57 86.8 57.1 86.1 57.1 C 85.2 57.1 84.5 56.9 84 56.3 C 83.4 55.7 83.2 55 83.2 53.9 C 83.2 52.9 83.4 52.1 84 51.5 C 84.5 50.9 85.2 50.6 86.1 50.6 C 86.9 50.6 87.6 50.9 88.1 51.5 C 88.6 52.1 88.9 52.8 88.9 53.9 C 88.9 53.9 88.9 54 88.9 54.2 C 88.9 54.2 84.2 54.2 84.2 54.2 C 84.3 54.8 84.5 55.4 84.8 55.7 C 85.2 56.1 85.6 56.3 86.1 56.3 C 86.5 56.3 86.8 56.2 87.1 56 C 87.4 55.8 87.6 55.4 87.8 55 Z M 84.3 53.3 C 84.3 53.3 87.8 53.3 87.8 53.3 C 87.7 52.8 87.6 52.4 87.4 52.1 C 87 51.7 86.6 51.5 86.1 51.5 C 85.6 51.5 85.2 51.7 84.9 52 C 84.5 52.3 84.3 52.7 84.3 53.3 Z M 94.2 54.7 C 94.2 54.7 95.3 54.9 95.3 54.9 C 95.2 55.6 94.9 56.1 94.4 56.5 C 93.9 56.9 93.4 57.1 92.7 57.1 C 91.8 57.1 91.2 56.9 90.6 56.3 C 90.1 55.7 89.9 55 89.9 53.9 C 89.9 53.2 90 52.7 90.2 52.1 C 90.4 51.6 90.8 51.3 91.2 51 C 91.7 50.8 92.2 50.6 92.7 50.6 C 93.4 50.6 93.9 50.8 94.4 51.1 C 94.8 51.5 95.1 52 95.2 52.6 C 95.2 52.6 94.2 52.8 94.2 52.8 C 94.1 52.3 93.9 52 93.6 51.8 C 93.4 51.6 93.1 51.5 92.7 51.5 C 92.2 51.5 91.8 51.7 91.4 52.1 C 91.1 52.5 90.9 53.1 90.9 53.9 C 90.9 54.7 91.1 55.3 91.4 55.7 C 91.7 56.1 92.2 56.3 92.7 56.3 C 93.1 56.3 93.4 56.1 93.7 55.9 C 94 55.6 94.2 55.2 94.2 54.7 Z M 96.2 49.6 L 96.2 48.4 L 97.2 48.4 L 97.2 49.6 L 96.2 49.6 Z M 96.2 57 L 96.2 50.8 L 97.2 50.8 L 97.2 57 L 96.2 57 Z M 103.1 57 C 103 56.8 102.9 56.5 102.9 56.2 C 102.5 56.6 102.1 56.8 101.8 56.9 C 101.4 57.1 101 57.1 100.6 57.1 C 99.9 57.1 99.4 57 99 56.6 C 98.7 56.3 98.5 55.9 98.5 55.4 C 98.5 55.1 98.6 54.8 98.7 54.5 C 98.8 54.3 99 54.1 99.2 53.9 C 99.5 53.8 99.7 53.7 100 53.6 C 100.2 53.5 100.5 53.5 100.9 53.4 C 101.8 53.3 102.4 53.2 102.8 53.1 C 102.8 52.9 102.8 52.8 102.8 52.8 C 102.8 52.3 102.7 52 102.5 51.9 C 102.3 51.6 101.9 51.5 101.3 51.5 C 100.8 51.5 100.5 51.6 100.2 51.8 C 100 51.9 99.8 52.3 99.7 52.7 C 99.7 52.7 98.7 52.6 98.7 52.6 C 98.8 52.1 98.9 51.8 99.1 51.5 C 99.3 51.2 99.7 51 100.1 50.9 C 100.5 50.7 100.9 50.6 101.5 50.6 C 102 50.6 102.4 50.7 102.8 50.8 C 103.1 50.9 103.3 51.1 103.5 51.3 C 103.7 51.5 103.8 51.7 103.8 52 C 103.9 52.2 103.9 52.5 103.9 53 C 103.9 53 103.9 54.4 103.9 54.4 C 103.9 55.4 103.9 56 104 56.3 C 104 56.5 104.1 56.8 104.2 57 C 104.22 57 103.1 57 103.1 57 C 103.1 57 103.12 57 103.1 57 Z M 102.8 53.9 C 102.4 54 101.9 54.2 101.1 54.3 C 100.7 54.3 100.4 54.4 100.2 54.5 C 100 54.6 99.9 54.7 99.8 54.8 C 99.7 55 99.6 55.1 99.6 55.3 C 99.6 55.6 99.7 55.8 99.9 56 C 100.1 56.2 100.5 56.3 100.9 56.3 C 101.3 56.3 101.6 56.2 102 56 C 102.3 55.9 102.5 55.6 102.7 55.3 C 102.8 55.1 102.8 54.7 102.8 54.3 C 102.8 54.3 102.8 53.9 102.8 53.9 Z M 105.5 57 L 105.5 48.4 L 106.6 48.4 L 106.6 57 L 105.5 57 Z M 108.2 49.6 L 108.2 48.4 L 109.2 48.4 L 109.2 49.6 L 108.2 49.6 Z M 108.2 57 L 108.2 50.8 L 109.2 50.8 L 109.2 57 L 108.2 57 Z M 110.4 55.1 C 110.4 55.1 111.5 55 111.5 55 C 111.5 55.4 111.7 55.7 112 55.9 C 112.2 56.2 112.6 56.3 113.1 56.3 C 113.6 56.3 113.9 56.2 114.2 56 C 114.4 55.8 114.5 55.5 114.5 55.3 C 114.5 55 114.4 54.9 114.2 54.7 C 114.1 54.6 113.7 54.5 113.1 54.4 C 112.4 54.2 111.8 54 111.5 53.9 C 111.2 53.7 111 53.5 110.8 53.3 C 110.7 53 110.6 52.7 110.6 52.4 C 110.6 52.2 110.7 51.9 110.8 51.7 C 110.9 51.4 111.1 51.2 111.3 51.1 C 111.5 50.9 111.7 50.8 112 50.8 C 112.3 50.7 112.6 50.6 112.9 50.6 C 113.4 50.6 113.8 50.7 114.2 50.8 C 114.6 51 114.8 51.2 115 51.4 C 115.2 51.7 115.3 52 115.4 52.4 C 115.4 52.4 114.3 52.5 114.3 52.5 C 114.3 52.2 114.2 52 113.9 51.8 C 113.7 51.6 113.4 51.5 113 51.5 C 112.5 51.5 112.1 51.6 111.9 51.7 C 111.7 51.9 111.6 52.1 111.6 52.3 C 111.6 52.4 111.7 52.6 111.8 52.7 C 111.8 52.8 112 52.9 112.2 53 C 112.3 53 112.6 53.1 113.1 53.2 C 113.8 53.4 114.4 53.6 114.7 53.7 C 114.9 53.8 115.2 54 115.3 54.3 C 115.5 54.5 115.6 54.8 115.6 55.2 C 115.6 55.5 115.5 55.9 115.3 56.2 C 115.1 56.5 114.8 56.7 114.4 56.9 C 114 57.1 113.6 57.1 113.1 57.1 C 112.3 57.1 111.7 57 111.2 56.6 C 110.8 56.3 110.5 55.8 110.4 55.1 Z M 118.7 56.1 C 118.8 56.1 119 56.1 119.2 56.1 C 119.2 56.1 119.3 57 119.3 57 C 119 57.1 118.7 57.1 118.5 57.1 C 118.1 57.1 117.8 57 117.6 56.9 C 117.4 56.8 117.3 56.6 117.2 56.4 C 117.1 56.2 117 55.8 117 55.2 C 117.05 55.18 117 51.6 117 51.6 L 116.3 51.6 L 116.3 50.8 L 117 50.8 L 117 49.2 L 118.1 48.6 L 118.1 50.8 L 119.2 50.8 L 119.2 51.6 L 118.1 51.6 C 118.1 51.6 118.1 55.24 118.1 55.2 C 118.1 55.5 118.1 55.7 118.2 55.8 C 118.2 55.9 118.2 56 118.3 56 C 118.4 56.1 118.5 56.1 118.7 56.1 C 118.7 56.1 118.7 56.1 118.7 56.1 Z M 125.6 57 L 125.6 49.4 L 122.8 49.4 L 122.8 48.4 L 129.6 48.4 L 129.6 49.4 L 126.8 49.4 L 126.8 57 L 125.6 57 Z M 133.6 57 C 133.5 56.8 133.4 56.5 133.4 56.2 C 133 56.6 132.6 56.8 132.2 56.9 C 131.9 57.1 131.5 57.1 131.1 57.1 C 130.4 57.1 129.9 57 129.5 56.6 C 129.1 56.3 128.9 55.9 128.9 55.4 C 128.9 55.1 129 54.8 129.2 54.5 C 129.3 54.3 129.5 54.1 129.7 53.9 C 129.9 53.8 130.2 53.7 130.5 53.6 C 130.7 53.5 131 53.5 131.4 53.4 C 132.2 53.3 132.9 53.2 133.3 53.1 C 133.3 52.9 133.3 52.8 133.3 52.8 C 133.3 52.3 133.2 52 133 51.9 C 132.7 51.6 132.3 51.5 131.8 51.5 C 131.3 51.5 130.9 51.6 130.7 51.8 C 130.4 51.9 130.3 52.3 130.2 52.7 C 130.2 52.7 129.1 52.6 129.1 52.6 C 129.2 52.1 129.4 51.8 129.6 51.5 C 129.8 51.2 130.1 51 130.5 50.9 C 130.9 50.7 131.4 50.6 131.9 50.6 C 132.5 50.6 132.9 50.7 133.2 50.8 C 133.6 50.9 133.8 51.1 134 51.3 C 134.1 51.5 134.2 51.7 134.3 52 C 134.3 52.2 134.3 52.5 134.3 53 C 134.3 53 134.3 54.4 134.3 54.4 C 134.3 55.4 134.4 56 134.4 56.3 C 134.5 56.5 134.5 56.8 134.7 57 C 134.68 57 133.6 57 133.6 57 C 133.6 57 133.58 57 133.6 57 Z M 133.3 53.9 C 132.9 54 132.3 54.2 131.6 54.3 C 131.1 54.3 130.8 54.4 130.6 54.5 C 130.5 54.6 130.3 54.7 130.2 54.8 C 130.1 55 130.1 55.1 130.1 55.3 C 130.1 55.6 130.2 55.8 130.4 56 C 130.6 56.2 130.9 56.3 131.3 56.3 C 131.7 56.3 132.1 56.2 132.4 56 C 132.7 55.9 133 55.6 133.1 55.3 C 133.2 55.1 133.3 54.7 133.3 54.3 C 133.3 54.3 133.3 53.9 133.3 53.9 Z M 136 57 L 136 48.4 L 137 48.4 L 137 57 L 136 57 Z M 142.9 55 C 142.9 55 144 55.1 144 55.1 C 143.8 55.8 143.5 56.3 143 56.6 C 142.6 57 142 57.1 141.3 57.1 C 140.3 57.1 139.6 56.9 139.1 56.3 C 138.6 55.7 138.3 55 138.3 53.9 C 138.3 52.9 138.6 52.1 139.1 51.5 C 139.6 50.9 140.3 50.6 141.2 50.6 C 142 50.6 142.7 50.9 143.2 51.5 C 143.8 52.1 144 52.8 144 53.9 C 144 53.9 144 54 144 54.2 C 144 54.2 139.4 54.2 139.4 54.2 C 139.4 54.8 139.6 55.4 140 55.7 C 140.3 56.1 140.7 56.3 141.3 56.3 C 141.7 56.3 142 56.2 142.3 56 C 142.5 55.8 142.7 55.4 142.9 55 Z M 139.4 53.3 C 139.4 53.3 142.9 53.3 142.9 53.3 C 142.9 52.8 142.7 52.4 142.5 52.1 C 142.2 51.7 141.7 51.5 141.2 51.5 C 140.7 51.5 140.3 51.7 140 52 C 139.7 52.3 139.5 52.7 139.4 53.3 Z M 145.3 57 L 145.3 50.8 L 146.3 50.8 C 146.3 50.8 146.27 51.66 146.3 51.7 C 146.7 51 147.4 50.6 148.2 50.6 C 148.6 50.6 149 50.7 149.3 50.8 C 149.6 51 149.8 51.2 150 51.4 C 150.1 51.6 150.3 51.8 150.3 52.1 C 150.4 52.3 150.4 52.7 150.4 53.2 C 150.38 53.17 150.4 57 150.4 57 L 149.3 57 C 149.3 57 149.32 53.21 149.3 53.2 C 149.3 52.8 149.3 52.5 149.2 52.3 C 149.1 52 149 51.9 148.8 51.7 C 148.6 51.6 148.3 51.6 148 51.6 C 147.6 51.6 147.2 51.7 146.9 52 C 146.5 52.3 146.4 52.8 146.4 53.6 C 146.37 53.6 146.4 57 146.4 57 L 145.3 57 Z M 153.8 56.1 C 153.9 56.1 154.1 56.1 154.3 56.1 C 154.3 56.1 154.4 57 154.4 57 C 154.2 57.1 153.9 57.1 153.7 57.1 C 153.3 57.1 153 57 152.8 56.9 C 152.5 56.8 152.4 56.6 152.3 56.4 C 152.2 56.2 152.2 55.8 152.2 55.2 C 152.19 55.18 152.2 51.6 152.2 51.6 L 151.4 51.6 L 151.4 50.8 L 152.2 50.8 L 152.2 49.2 L 153.2 48.6 L 153.2 50.8 L 154.3 50.8 L 154.3 51.6 L 153.2 51.6 C 153.2 51.6 153.23 55.24 153.2 55.2 C 153.2 55.5 153.3 55.7 153.3 55.8 C 153.3 55.9 153.4 56 153.5 56 C 153.6 56.1 153.7 56.1 153.8 56.1 C 153.8 56.1 153.8 56.1 153.8 56.1 Z " stroke="none" fill="#000"/>  </g>  <g id="Polygon27694">    <path d="M 1.6 49.2 C 1.6 48.7 1.7 48.2 1.9 47.7 C 2.1 47.2 2.4 46.8 2.8 46.5 C 3.1 46.1 3.5 45.8 4 45.6 C 4.5 45.4 5 45.3 5.5 45.3 C 6 45.3 6.5 45.4 7 45.6 C 7.5 45.8 7.9 46.1 8.3 46.5 C 8.6 46.8 8.9 47.2 9.1 47.7 C 9.3 48.2 9.4 48.7 9.4 49.2 C 9.4 49.8 9.3 50.3 9.1 50.7 C 8.9 51.2 8.6 51.6 8.3 52 C 7.9 52.3 7.5 52.6 7 52.8 C 6.5 53 6 53.1 5.5 53.1 C 5 53.1 4.5 53 4 52.8 C 3.5 52.6 3.1 52.3 2.8 52 C 2.4 51.6 2.1 51.2 1.9 50.7 C 1.7 50.3 1.6 49.8 1.6 49.2 Z " stroke="none" fill="#f28620"/>  </g>  <g id="Polygon27693">    <path d="M 21.1 39.5 L 21.1 31.9 L 18.3 31.9 L 18.3 30.9 L 25.1 30.9 L 25.1 31.9 L 22.2 31.9 L 22.2 39.5 L 21.1 39.5 Z M 25.7 39.5 L 25.7 33.3 L 26.6 33.3 C 26.6 33.3 26.61 34.22 26.6 34.2 C 26.9 33.8 27.1 33.5 27.3 33.3 C 27.5 33.2 27.7 33.1 28 33.1 C 28.3 33.1 28.7 33.3 29 33.5 C 29 33.5 28.7 34.5 28.7 34.5 C 28.4 34.3 28.2 34.2 27.9 34.2 C 27.7 34.2 27.5 34.3 27.3 34.4 C 27.1 34.6 27 34.8 26.9 35 C 26.8 35.4 26.7 35.8 26.7 36.2 C 26.72 36.24 26.7 39.5 26.7 39.5 L 25.7 39.5 Z M 33.9 39.5 C 33.8 39.3 33.8 39 33.7 38.7 C 33.3 39.1 33 39.3 32.6 39.4 C 32.2 39.6 31.9 39.6 31.4 39.6 C 30.8 39.6 30.2 39.5 29.9 39.1 C 29.5 38.8 29.3 38.4 29.3 37.9 C 29.3 37.6 29.4 37.3 29.5 37 C 29.7 36.8 29.8 36.6 30.1 36.4 C 30.3 36.3 30.5 36.2 30.8 36.1 C 31 36 31.3 36 31.8 35.9 C 32.6 35.8 33.2 35.7 33.6 35.6 C 33.6 35.4 33.7 35.3 33.7 35.3 C 33.7 34.8 33.6 34.5 33.4 34.4 C 33.1 34.1 32.7 34 32.2 34 C 31.7 34 31.3 34.1 31.1 34.3 C 30.8 34.4 30.6 34.8 30.5 35.2 C 30.5 35.2 29.5 35.1 29.5 35.1 C 29.6 34.6 29.7 34.3 30 34 C 30.2 33.7 30.5 33.5 30.9 33.4 C 31.3 33.2 31.8 33.1 32.3 33.1 C 32.8 33.1 33.3 33.2 33.6 33.3 C 33.9 33.4 34.2 33.6 34.3 33.8 C 34.5 34 34.6 34.2 34.7 34.5 C 34.7 34.7 34.7 35 34.7 35.5 C 34.7 35.5 34.7 36.9 34.7 36.9 C 34.7 37.9 34.7 38.5 34.8 38.8 C 34.8 39 34.9 39.3 35 39.5 C 35.04 39.5 33.9 39.5 33.9 39.5 C 33.9 39.5 33.94 39.5 33.9 39.5 Z M 33.6 36.4 C 33.3 36.5 32.7 36.7 31.9 36.8 C 31.5 36.8 31.2 36.9 31 37 C 30.8 37.1 30.7 37.2 30.6 37.3 C 30.5 37.5 30.4 37.6 30.4 37.8 C 30.4 38.1 30.5 38.3 30.8 38.5 C 31 38.7 31.3 38.8 31.7 38.8 C 32.1 38.8 32.5 38.7 32.8 38.5 C 33.1 38.4 33.3 38.1 33.5 37.8 C 33.6 37.6 33.6 37.2 33.6 36.8 C 33.6 36.8 33.6 36.4 33.6 36.4 Z M 36.4 32.1 L 36.4 30.9 L 37.4 30.9 L 37.4 32.1 L 36.4 32.1 Z M 36.4 39.5 L 36.4 33.3 L 37.4 33.3 L 37.4 39.5 L 36.4 39.5 Z M 39 39.5 L 39 33.3 L 40 33.3 C 40 33.3 39.96 34.16 40 34.2 C 40.4 33.5 41.1 33.1 41.9 33.1 C 42.3 33.1 42.7 33.2 43 33.3 C 43.3 33.5 43.5 33.7 43.7 33.9 C 43.8 34.1 43.9 34.3 44 34.6 C 44 34.8 44.1 35.2 44.1 35.7 C 44.07 35.67 44.1 39.5 44.1 39.5 L 43 39.5 C 43 39.5 43.01 35.71 43 35.7 C 43 35.3 43 35 42.9 34.8 C 42.8 34.5 42.7 34.4 42.5 34.2 C 42.2 34.1 42 34.1 41.7 34.1 C 41.3 34.1 40.9 34.2 40.6 34.5 C 40.2 34.8 40.1 35.3 40.1 36.1 C 40.07 36.1 40.1 39.5 40.1 39.5 L 39 39.5 Z M 45.7 32.1 L 45.7 30.9 L 46.7 30.9 L 46.7 32.1 L 45.7 32.1 Z M 45.7 39.5 L 45.7 33.3 L 46.7 33.3 L 46.7 39.5 L 45.7 39.5 Z M 48.4 39.5 L 48.4 33.3 L 49.3 33.3 C 49.3 33.3 49.3 34.16 49.3 34.2 C 49.8 33.5 50.4 33.1 51.3 33.1 C 51.7 33.1 52 33.2 52.3 33.3 C 52.6 33.5 52.9 33.7 53 33.9 C 53.2 34.1 53.3 34.3 53.3 34.6 C 53.4 34.8 53.4 35.2 53.4 35.7 C 53.41 35.67 53.4 39.5 53.4 39.5 L 52.4 39.5 C 52.4 39.5 52.35 35.71 52.4 35.7 C 52.4 35.3 52.3 35 52.2 34.8 C 52.1 34.5 52 34.4 51.8 34.2 C 51.6 34.1 51.3 34.1 51.1 34.1 C 50.6 34.1 50.2 34.2 49.9 34.5 C 49.6 34.8 49.4 35.3 49.4 36.1 C 49.41 36.1 49.4 39.5 49.4 39.5 L 48.4 39.5 Z M 54.8 40 C 54.8 40 55.9 40.2 55.9 40.2 C 55.9 40.5 56 40.7 56.2 40.9 C 56.5 41.1 56.8 41.2 57.3 41.2 C 57.8 41.2 58.2 41.1 58.4 40.9 C 58.7 40.7 58.9 40.4 59 40 C 59 39.8 59 39.4 59 38.7 C 58.6 39.2 58 39.5 57.3 39.5 C 56.5 39.5 55.8 39.2 55.3 38.6 C 54.9 38 54.6 37.2 54.6 36.4 C 54.6 35.8 54.7 35.2 54.9 34.7 C 55.2 34.2 55.5 33.8 55.9 33.5 C 56.3 33.3 56.8 33.1 57.3 33.1 C 58.1 33.1 58.7 33.4 59.1 34 C 59.13 34.03 59.1 33.3 59.1 33.3 L 60.1 33.3 C 60.1 33.3 60.11 38.66 60.1 38.7 C 60.1 39.6 60 40.3 59.8 40.7 C 59.6 41.1 59.3 41.4 58.9 41.7 C 58.4 41.9 57.9 42 57.3 42 C 56.6 42 56 41.9 55.5 41.5 C 55 41.2 54.8 40.7 54.8 40 Z M 55.7 36.3 C 55.7 37.1 55.9 37.7 56.2 38.1 C 56.5 38.4 56.9 38.6 57.4 38.6 C 57.9 38.6 58.3 38.4 58.6 38.1 C 59 37.7 59.1 37.1 59.1 36.3 C 59.1 35.6 59 35 58.6 34.6 C 58.3 34.2 57.9 34 57.4 34 C 56.9 34 56.5 34.2 56.2 34.6 C 55.9 35 55.7 35.5 55.7 36.3 Z M 65.2 39.5 L 65.2 30.9 C 65.2 30.9 68.13 30.91 68.1 30.9 C 68.8 30.9 69.3 31 69.7 31 C 70.1 31.1 70.6 31.4 70.9 31.6 C 71.4 32 71.7 32.5 71.9 33.1 C 72.2 33.7 72.3 34.4 72.3 35.2 C 72.3 35.8 72.2 36.4 72 36.9 C 71.9 37.4 71.7 37.8 71.5 38.1 C 71.2 38.5 71 38.7 70.7 38.9 C 70.4 39.1 70 39.3 69.6 39.4 C 69.2 39.5 68.8 39.5 68.3 39.5 C 68.27 39.5 65.2 39.5 65.2 39.5 Z M 66.3 38.5 C 66.3 38.5 68.14 38.49 68.1 38.5 C 68.7 38.5 69.1 38.4 69.5 38.3 C 69.8 38.2 70.1 38.1 70.2 37.9 C 70.5 37.6 70.7 37.3 70.9 36.8 C 71 36.3 71.1 35.8 71.1 35.1 C 71.1 34.2 71 33.6 70.7 33.1 C 70.4 32.6 70 32.3 69.6 32.1 C 69.3 32 68.8 31.9 68.1 31.9 C 68.11 31.92 66.3 31.9 66.3 31.9 L 66.3 38.5 Z M 78 37.5 C 78 37.5 79 37.6 79 37.6 C 78.9 38.3 78.6 38.8 78.1 39.1 C 77.6 39.5 77 39.6 76.3 39.6 C 75.4 39.6 74.7 39.4 74.1 38.8 C 73.6 38.2 73.3 37.5 73.3 36.4 C 73.3 35.4 73.6 34.6 74.2 34 C 74.7 33.4 75.4 33.1 76.3 33.1 C 77.1 33.1 77.8 33.4 78.3 34 C 78.8 34.6 79.1 35.3 79.1 36.4 C 79.1 36.4 79.1 36.5 79.1 36.7 C 79.1 36.7 74.4 36.7 74.4 36.7 C 74.5 37.3 74.7 37.9 75 38.2 C 75.4 38.6 75.8 38.8 76.3 38.8 C 76.7 38.8 77 38.7 77.3 38.5 C 77.6 38.3 77.8 37.9 78 37.5 Z M 74.5 35.8 C 74.5 35.8 78 35.8 78 35.8 C 77.9 35.3 77.8 34.9 77.6 34.6 C 77.2 34.2 76.8 34 76.3 34 C 75.8 34 75.4 34.2 75 34.5 C 74.7 34.8 74.5 35.2 74.5 35.8 Z M 80 37.6 C 80 37.6 81 37.5 81 37.5 C 81.1 37.9 81.2 38.2 81.5 38.4 C 81.8 38.7 82.1 38.8 82.6 38.8 C 83.1 38.8 83.4 38.7 83.7 38.5 C 83.9 38.3 84 38 84 37.8 C 84 37.5 83.9 37.4 83.7 37.2 C 83.6 37.1 83.2 37 82.6 36.9 C 81.9 36.7 81.3 36.5 81 36.4 C 80.7 36.2 80.5 36 80.4 35.8 C 80.2 35.5 80.1 35.2 80.1 34.9 C 80.1 34.7 80.2 34.4 80.3 34.2 C 80.4 33.9 80.6 33.7 80.8 33.6 C 81 33.4 81.2 33.3 81.5 33.3 C 81.8 33.2 82.1 33.1 82.4 33.1 C 82.9 33.1 83.3 33.2 83.7 33.3 C 84.1 33.5 84.3 33.7 84.5 33.9 C 84.7 34.2 84.8 34.5 84.9 34.9 C 84.9 34.9 83.9 35 83.9 35 C 83.8 34.7 83.7 34.5 83.4 34.3 C 83.2 34.1 82.9 34 82.5 34 C 82 34 81.7 34.1 81.5 34.2 C 81.2 34.4 81.1 34.6 81.1 34.8 C 81.1 34.9 81.2 35.1 81.3 35.2 C 81.4 35.3 81.5 35.4 81.7 35.5 C 81.8 35.5 82.1 35.6 82.6 35.7 C 83.4 35.9 83.9 36.1 84.2 36.2 C 84.5 36.3 84.7 36.5 84.9 36.8 C 85 37 85.1 37.3 85.1 37.7 C 85.1 38 85 38.4 84.8 38.7 C 84.6 39 84.3 39.2 83.9 39.4 C 83.5 39.6 83.1 39.6 82.6 39.6 C 81.8 39.6 81.2 39.5 80.8 39.1 C 80.3 38.8 80.1 38.3 80 37.6 Z M 86.4 32.1 L 86.4 30.9 L 87.4 30.9 L 87.4 32.1 L 86.4 32.1 Z M 86.4 39.5 L 86.4 33.3 L 87.4 33.3 L 87.4 39.5 L 86.4 39.5 Z M 88.8 40 C 88.8 40 89.9 40.2 89.9 40.2 C 89.9 40.5 90 40.7 90.2 40.9 C 90.5 41.1 90.8 41.2 91.3 41.2 C 91.8 41.2 92.2 41.1 92.4 40.9 C 92.7 40.7 92.9 40.4 93 40 C 93 39.8 93.1 39.4 93 38.7 C 92.6 39.2 92 39.5 91.3 39.5 C 90.5 39.5 89.8 39.2 89.3 38.6 C 88.9 38 88.6 37.2 88.6 36.4 C 88.6 35.8 88.7 35.2 89 34.7 C 89.2 34.2 89.5 33.8 89.9 33.5 C 90.3 33.3 90.8 33.1 91.3 33.1 C 92.1 33.1 92.7 33.4 93.1 34 C 93.15 34.03 93.1 33.3 93.1 33.3 L 94.1 33.3 C 94.1 33.3 94.12 38.66 94.1 38.7 C 94.1 39.6 94 40.3 93.8 40.7 C 93.6 41.1 93.3 41.4 92.9 41.7 C 92.5 41.9 91.9 42 91.3 42 C 90.6 42 90 41.9 89.5 41.5 C 89.1 41.2 88.8 40.7 88.8 40 Z M 89.7 36.3 C 89.7 37.1 89.9 37.7 90.2 38.1 C 90.5 38.4 90.9 38.6 91.4 38.6 C 91.9 38.6 92.3 38.4 92.6 38.1 C 93 37.7 93.1 37.1 93.1 36.3 C 93.1 35.6 93 35 92.6 34.6 C 92.3 34.2 91.9 34 91.4 34 C 90.9 34 90.5 34.2 90.2 34.6 C 89.9 35 89.7 35.5 89.7 36.3 Z M 95.7 39.5 L 95.7 33.3 L 96.7 33.3 C 96.7 33.3 96.66 34.16 96.7 34.2 C 97.1 33.5 97.8 33.1 98.6 33.1 C 99 33.1 99.4 33.2 99.7 33.3 C 100 33.5 100.2 33.7 100.4 33.9 C 100.5 34.1 100.6 34.3 100.7 34.6 C 100.7 34.8 100.8 35.2 100.8 35.7 C 100.77 35.67 100.8 39.5 100.8 39.5 L 99.7 39.5 C 99.7 39.5 99.71 35.71 99.7 35.7 C 99.7 35.3 99.7 35 99.6 34.8 C 99.5 34.5 99.4 34.4 99.2 34.2 C 98.9 34.1 98.7 34.1 98.4 34.1 C 98 34.1 97.6 34.2 97.3 34.5 C 96.9 34.8 96.8 35.3 96.8 36.1 C 96.77 36.1 96.8 39.5 96.8 39.5 L 95.7 39.5 Z M 110 39.5 C 109.9 39.3 109.8 39 109.8 38.7 C 109.4 39.1 109 39.3 108.7 39.4 C 108.3 39.6 107.9 39.6 107.5 39.6 C 106.8 39.6 106.3 39.5 105.9 39.1 C 105.5 38.8 105.4 38.4 105.4 37.9 C 105.4 37.6 105.4 37.3 105.6 37 C 105.7 36.8 105.9 36.6 106.1 36.4 C 106.3 36.3 106.6 36.2 106.9 36.1 C 107.1 36 107.4 36 107.8 35.9 C 108.7 35.8 109.3 35.7 109.7 35.6 C 109.7 35.4 109.7 35.3 109.7 35.3 C 109.7 34.8 109.6 34.5 109.4 34.4 C 109.1 34.1 108.7 34 108.2 34 C 107.7 34 107.3 34.1 107.1 34.3 C 106.9 34.4 106.7 34.8 106.6 35.2 C 106.6 35.2 105.5 35.1 105.5 35.1 C 105.6 34.6 105.8 34.3 106 34 C 106.2 33.7 106.5 33.5 106.9 33.4 C 107.3 33.2 107.8 33.1 108.4 33.1 C 108.9 33.1 109.3 33.2 109.6 33.3 C 110 33.4 110.2 33.6 110.4 33.8 C 110.5 34 110.6 34.2 110.7 34.5 C 110.7 34.7 110.8 35 110.8 35.5 C 110.8 35.5 110.8 36.9 110.8 36.9 C 110.8 37.9 110.8 38.5 110.8 38.8 C 110.9 39 111 39.3 111.1 39.5 C 111.09 39.5 110 39.5 110 39.5 C 110 39.5 109.99 39.5 110 39.5 Z M 109.7 36.4 C 109.3 36.5 108.7 36.7 108 36.8 C 107.5 36.8 107.2 36.9 107.1 37 C 106.9 37.1 106.7 37.2 106.6 37.3 C 106.5 37.5 106.5 37.6 106.5 37.8 C 106.5 38.1 106.6 38.3 106.8 38.5 C 107 38.7 107.3 38.8 107.7 38.8 C 108.1 38.8 108.5 38.7 108.8 38.5 C 109.1 38.4 109.4 38.1 109.5 37.8 C 109.6 37.6 109.7 37.2 109.7 36.8 C 109.7 36.8 109.7 36.4 109.7 36.4 Z M 112.4 39.5 L 112.4 33.3 L 113.3 33.3 C 113.3 33.3 113.34 34.16 113.3 34.2 C 113.8 33.5 114.5 33.1 115.3 33.1 C 115.7 33.1 116 33.2 116.4 33.3 C 116.7 33.5 116.9 33.7 117.1 33.9 C 117.2 34.1 117.3 34.3 117.4 34.6 C 117.4 34.8 117.5 35.2 117.5 35.7 C 117.45 35.67 117.5 39.5 117.5 39.5 L 116.4 39.5 C 116.4 39.5 116.4 35.71 116.4 35.7 C 116.4 35.3 116.4 35 116.3 34.8 C 116.2 34.5 116 34.4 115.8 34.2 C 115.6 34.1 115.4 34.1 115.1 34.1 C 114.7 34.1 114.3 34.2 113.9 34.5 C 113.6 34.8 113.4 35.3 113.4 36.1 C 113.45 36.1 113.4 39.5 113.4 39.5 L 112.4 39.5 Z M 123.1 39.5 C 123.1 39.5 123.11 38.71 123.1 38.7 C 122.7 39.3 122.1 39.6 121.4 39.6 C 120.9 39.6 120.4 39.5 120 39.2 C 119.6 39 119.3 38.6 119 38.1 C 118.8 37.6 118.7 37 118.7 36.4 C 118.7 35.8 118.8 35.2 119 34.7 C 119.2 34.2 119.5 33.8 119.9 33.5 C 120.3 33.3 120.8 33.1 121.3 33.1 C 121.7 33.1 122 33.2 122.3 33.4 C 122.6 33.5 122.9 33.7 123 34 C 123.04 33.99 123 30.9 123 30.9 L 124.1 30.9 L 124.1 39.5 L 123.1 39.5 Z M 119.8 36.4 C 119.8 37.2 119.9 37.8 120.3 38.2 C 120.6 38.6 121 38.8 121.5 38.8 C 121.9 38.8 122.3 38.6 122.6 38.2 C 123 37.8 123.1 37.3 123.1 36.5 C 123.1 35.6 123 35 122.6 34.6 C 122.3 34.2 121.9 34 121.4 34 C 120.9 34 120.6 34.2 120.2 34.6 C 119.9 35 119.8 35.6 119.8 36.4 Z M 129.2 39.5 L 129.2 30.9 C 129.2 30.9 132.17 30.91 132.2 30.9 C 132.8 30.9 133.3 31 133.7 31 C 134.2 31.1 134.6 31.4 135 31.6 C 135.4 32 135.8 32.5 136 33.1 C 136.2 33.7 136.3 34.4 136.3 35.2 C 136.3 35.8 136.2 36.4 136.1 36.9 C 135.9 37.4 135.7 37.8 135.5 38.1 C 135.3 38.5 135 38.7 134.7 38.9 C 134.4 39.1 134.1 39.3 133.7 39.4 C 133.3 39.5 132.8 39.5 132.3 39.5 C 132.31 39.5 129.2 39.5 129.2 39.5 Z M 130.3 38.5 C 130.3 38.5 132.18 38.49 132.2 38.5 C 132.7 38.5 133.2 38.4 133.5 38.3 C 133.8 38.2 134.1 38.1 134.3 37.9 C 134.6 37.6 134.8 37.3 134.9 36.8 C 135.1 36.3 135.1 35.8 135.1 35.1 C 135.1 34.2 135 33.6 134.7 33.1 C 134.4 32.6 134 32.3 133.6 32.1 C 133.3 32 132.8 31.9 132.2 31.9 C 132.15 31.92 130.3 31.9 130.3 31.9 L 130.3 38.5 Z M 142 37.5 C 142 37.5 143.1 37.6 143.1 37.6 C 142.9 38.3 142.6 38.8 142.1 39.1 C 141.7 39.5 141.1 39.6 140.4 39.6 C 139.4 39.6 138.7 39.4 138.2 38.8 C 137.7 38.2 137.4 37.5 137.4 36.4 C 137.4 35.4 137.7 34.6 138.2 34 C 138.7 33.4 139.4 33.1 140.3 33.1 C 141.1 33.1 141.8 33.4 142.3 34 C 142.9 34.6 143.1 35.3 143.1 36.4 C 143.1 36.4 143.1 36.5 143.1 36.7 C 143.1 36.7 138.5 36.7 138.5 36.7 C 138.5 37.3 138.7 37.9 139.1 38.2 C 139.4 38.6 139.8 38.8 140.4 38.8 C 140.7 38.8 141.1 38.7 141.4 38.5 C 141.6 38.3 141.8 37.9 142 37.5 Z M 138.5 35.8 C 138.5 35.8 142 35.8 142 35.8 C 142 35.3 141.8 34.9 141.6 34.6 C 141.3 34.2 140.8 34 140.3 34 C 139.8 34 139.4 34.2 139.1 34.5 C 138.8 34.8 138.6 35.2 138.5 35.8 Z M 144.4 39.5 L 144.4 30.9 L 145.4 30.9 L 145.4 39.5 L 144.4 39.5 Z M 147.1 32.1 L 147.1 30.9 L 148.1 30.9 L 148.1 32.1 L 147.1 32.1 Z M 147.1 39.5 L 147.1 33.3 L 148.1 33.3 L 148.1 39.5 L 147.1 39.5 Z M 151.5 39.5 L 149.1 33.3 L 150.2 33.3 C 150.2 33.3 151.56 37 151.6 37 C 151.7 37.4 151.8 37.8 152 38.3 C 152.1 37.9 152.2 37.5 152.3 37.1 C 152.35 37.07 153.7 33.3 153.7 33.3 L 154.8 33.3 L 152.5 39.5 L 151.5 39.5 Z M 160 37.5 C 160 37.5 161.1 37.6 161.1 37.6 C 160.9 38.3 160.6 38.8 160.1 39.1 C 159.7 39.5 159.1 39.6 158.4 39.6 C 157.5 39.6 156.7 39.4 156.2 38.8 C 155.7 38.2 155.4 37.5 155.4 36.4 C 155.4 35.4 155.7 34.6 156.2 34 C 156.7 33.4 157.4 33.1 158.3 33.1 C 159.1 33.1 159.8 33.4 160.3 34 C 160.9 34.6 161.1 35.3 161.1 36.4 C 161.1 36.4 161.1 36.5 161.1 36.7 C 161.1 36.7 156.5 36.7 156.5 36.7 C 156.5 37.3 156.7 37.9 157.1 38.2 C 157.4 38.6 157.8 38.8 158.4 38.8 C 158.8 38.8 159.1 38.7 159.4 38.5 C 159.6 38.3 159.8 37.9 160 37.5 Z M 156.5 35.8 C 156.5 35.8 160 35.8 160 35.8 C 160 35.3 159.8 34.9 159.6 34.6 C 159.3 34.2 158.8 34 158.3 34 C 157.8 34 157.4 34.2 157.1 34.5 C 156.8 34.8 156.6 35.2 156.5 35.8 Z M 162.4 39.5 L 162.4 33.3 L 163.4 33.3 C 163.4 33.3 163.36 34.22 163.4 34.2 C 163.6 33.8 163.8 33.5 164 33.3 C 164.2 33.2 164.5 33.1 164.7 33.1 C 165.1 33.1 165.4 33.3 165.8 33.5 C 165.8 33.5 165.4 34.5 165.4 34.5 C 165.2 34.3 164.9 34.2 164.7 34.2 C 164.4 34.2 164.2 34.3 164 34.4 C 163.8 34.6 163.7 34.8 163.6 35 C 163.5 35.4 163.5 35.8 163.5 36.2 C 163.46 36.24 163.5 39.5 163.5 39.5 L 162.4 39.5 Z M 167.1 42 C 166.8 42 166.6 42 166.4 41.9 C 166.4 41.9 166.3 40.9 166.3 40.9 C 166.5 41 166.7 41 166.9 41 C 167.1 41 167.3 41 167.4 40.9 C 167.6 40.8 167.7 40.7 167.8 40.6 C 167.8 40.4 167.9 40.2 168.1 39.8 C 168.1 39.7 168.1 39.6 168.2 39.5 C 168.18 39.51 165.8 33.3 165.8 33.3 L 167 33.3 C 167 33.3 168.25 36.88 168.3 36.9 C 168.4 37.3 168.6 37.8 168.7 38.3 C 168.8 37.8 169 37.4 169.1 36.9 C 169.14 36.9 170.5 33.3 170.5 33.3 L 171.5 33.3 C 171.5 33.3 169.15 39.61 169.2 39.6 C 168.9 40.3 168.7 40.8 168.6 41 C 168.4 41.4 168.2 41.6 167.9 41.8 C 167.7 41.9 167.4 42 167.1 42 C 167.1 42 167.1 42 167.1 42 Z " stroke="none" fill="#000"/>  </g>  <g id="Polygon27692">    <path d="M 1.6 31.7 C 1.6 31.2 1.7 30.7 1.9 30.2 C 2.1 29.7 2.4 29.3 2.8 29 C 3.1 28.6 3.5 28.3 4 28.1 C 4.5 27.9 5 27.8 5.5 27.8 C 6 27.8 6.5 27.9 7 28.1 C 7.5 28.3 7.9 28.6 8.3 29 C 8.6 29.3 8.9 29.7 9.1 30.2 C 9.3 30.7 9.4 31.2 9.4 31.7 C 9.4 32.3 9.3 32.8 9.1 33.2 C 8.9 33.7 8.6 34.1 8.3 34.5 C 7.9 34.8 7.5 35.1 7 35.3 C 6.5 35.5 6 35.6 5.5 35.6 C 5 35.6 4.5 35.5 4 35.3 C 3.5 35.1 3.1 34.8 2.8 34.5 C 2.4 34.1 2.1 33.7 1.9 33.2 C 1.7 32.8 1.6 32.3 1.6 31.7 Z " stroke="none" fill="#f28620"/>  </g>  <g id="Polygon27691">    <path d="M 18.9 22 L 18.9 13.4 L 20.6 13.4 C 20.6 13.4 22.63 19.49 22.6 19.5 C 22.8 20.1 23 20.5 23 20.8 C 23.1 20.5 23.3 20 23.5 19.4 C 23.5 19.39 25.6 13.4 25.6 13.4 L 27.1 13.4 L 27.1 22 L 26 22 L 26 14.8 L 23.5 22 L 22.5 22 L 20 14.7 L 20 22 L 18.9 22 Z M 33.1 22 C 32.9 21.8 32.9 21.5 32.8 21.2 C 32.5 21.6 32.1 21.8 31.7 21.9 C 31.4 22.1 31 22.1 30.6 22.1 C 29.9 22.1 29.3 22 29 21.6 C 28.6 21.3 28.4 20.9 28.4 20.4 C 28.4 20.1 28.5 19.8 28.6 19.5 C 28.8 19.3 29 19.1 29.2 18.9 C 29.4 18.8 29.7 18.7 29.9 18.6 C 30.1 18.5 30.5 18.5 30.9 18.4 C 31.7 18.3 32.4 18.2 32.8 18.1 C 32.8 17.9 32.8 17.8 32.8 17.8 C 32.8 17.3 32.7 17 32.5 16.9 C 32.2 16.6 31.8 16.5 31.3 16.5 C 30.8 16.5 30.4 16.6 30.2 16.8 C 29.9 16.9 29.8 17.3 29.6 17.7 C 29.6 17.7 28.6 17.6 28.6 17.6 C 28.7 17.1 28.9 16.8 29.1 16.5 C 29.3 16.2 29.6 16 30 15.9 C 30.4 15.7 30.9 15.6 31.4 15.6 C 31.9 15.6 32.4 15.7 32.7 15.8 C 33 15.9 33.3 16.1 33.4 16.3 C 33.6 16.5 33.7 16.7 33.8 17 C 33.8 17.2 33.8 17.5 33.8 18 C 33.8 18 33.8 19.4 33.8 19.4 C 33.8 20.4 33.8 21 33.9 21.3 C 33.9 21.5 34 21.8 34.2 22 C 34.16 22 33.1 22 33.1 22 C 33.1 22 33.06 22 33.1 22 Z M 32.8 18.9 C 32.4 19 31.8 19.2 31 19.3 C 30.6 19.3 30.3 19.4 30.1 19.5 C 29.9 19.6 29.8 19.7 29.7 19.8 C 29.6 20 29.6 20.1 29.6 20.3 C 29.6 20.6 29.7 20.8 29.9 21 C 30.1 21.2 30.4 21.3 30.8 21.3 C 31.2 21.3 31.6 21.2 31.9 21 C 32.2 20.9 32.4 20.6 32.6 20.3 C 32.7 20.1 32.8 19.7 32.8 19.3 C 32.8 19.3 32.8 18.9 32.8 18.9 Z M 35.5 22 L 35.5 15.8 L 36.4 15.8 C 36.4 15.8 36.41 16.66 36.4 16.7 C 36.9 16 37.5 15.6 38.4 15.6 C 38.8 15.6 39.1 15.7 39.4 15.8 C 39.7 16 40 16.2 40.1 16.4 C 40.3 16.6 40.4 16.8 40.5 17.1 C 40.5 17.3 40.5 17.7 40.5 18.2 C 40.52 18.17 40.5 22 40.5 22 L 39.5 22 C 39.5 22 39.46 18.21 39.5 18.2 C 39.5 17.8 39.4 17.5 39.3 17.3 C 39.3 17 39.1 16.9 38.9 16.7 C 38.7 16.6 38.4 16.6 38.2 16.6 C 37.7 16.6 37.3 16.7 37 17 C 36.7 17.3 36.5 17.8 36.5 18.6 C 36.52 18.6 36.5 22 36.5 22 L 35.5 22 Z M 46.4 22 C 46.3 21.8 46.2 21.5 46.2 21.2 C 45.8 21.6 45.4 21.8 45.1 21.9 C 44.7 22.1 44.3 22.1 43.9 22.1 C 43.2 22.1 42.7 22 42.3 21.6 C 42 21.3 41.8 20.9 41.8 20.4 C 41.8 20.1 41.8 19.8 42 19.5 C 42.1 19.3 42.3 19.1 42.5 18.9 C 42.8 18.8 43 18.7 43.3 18.6 C 43.5 18.5 43.8 18.5 44.2 18.4 C 45.1 18.3 45.7 18.2 46.1 18.1 C 46.1 17.9 46.1 17.8 46.1 17.8 C 46.1 17.3 46 17 45.8 16.9 C 45.5 16.6 45.1 16.5 44.6 16.5 C 44.1 16.5 43.8 16.6 43.5 16.8 C 43.3 16.9 43.1 17.3 43 17.7 C 43 17.7 42 17.6 42 17.6 C 42.1 17.1 42.2 16.8 42.4 16.5 C 42.6 16.2 42.9 16 43.4 15.9 C 43.8 15.7 44.2 15.6 44.8 15.6 C 45.3 15.6 45.7 15.7 46.1 15.8 C 46.4 15.9 46.6 16.1 46.8 16.3 C 46.9 16.5 47.1 16.7 47.1 17 C 47.2 17.2 47.2 17.5 47.2 18 C 47.2 18 47.2 19.4 47.2 19.4 C 47.2 20.4 47.2 21 47.2 21.3 C 47.3 21.5 47.4 21.8 47.5 22 C 47.51 22 46.4 22 46.4 22 C 46.4 22 46.41 22 46.4 22 Z M 46.1 18.9 C 45.7 19 45.2 19.2 44.4 19.3 C 44 19.3 43.6 19.4 43.5 19.5 C 43.3 19.6 43.1 19.7 43 19.8 C 43 20 42.9 20.1 42.9 20.3 C 42.9 20.6 43 20.8 43.2 21 C 43.4 21.2 43.7 21.3 44.2 21.3 C 44.6 21.3 44.9 21.2 45.2 21 C 45.6 20.9 45.8 20.6 45.9 20.3 C 46.1 20.1 46.1 19.7 46.1 19.3 C 46.1 19.3 46.1 18.9 46.1 18.9 Z M 48.6 22.5 C 48.6 22.5 49.6 22.7 49.6 22.7 C 49.7 23 49.8 23.2 50 23.4 C 50.3 23.6 50.6 23.7 51.1 23.7 C 51.6 23.7 51.9 23.6 52.2 23.4 C 52.5 23.2 52.6 22.9 52.7 22.5 C 52.8 22.3 52.8 21.9 52.8 21.2 C 52.4 21.7 51.8 22 51.1 22 C 50.2 22 49.6 21.7 49.1 21.1 C 48.6 20.5 48.4 19.7 48.4 18.9 C 48.4 18.3 48.5 17.7 48.7 17.2 C 48.9 16.7 49.3 16.3 49.7 16 C 50.1 15.8 50.5 15.6 51.1 15.6 C 51.8 15.6 52.4 15.9 52.9 16.5 C 52.92 16.53 52.9 15.8 52.9 15.8 L 53.9 15.8 C 53.9 15.8 53.89 21.16 53.9 21.2 C 53.9 22.1 53.8 22.8 53.6 23.2 C 53.4 23.6 53.1 23.9 52.7 24.2 C 52.2 24.4 51.7 24.5 51.1 24.5 C 50.3 24.5 49.7 24.4 49.3 24 C 48.8 23.7 48.6 23.2 48.6 22.5 Z M 49.5 18.8 C 49.5 19.6 49.7 20.2 50 20.6 C 50.3 20.9 50.7 21.1 51.2 21.1 C 51.7 21.1 52.1 20.9 52.4 20.6 C 52.7 20.2 52.9 19.6 52.9 18.8 C 52.9 18.1 52.7 17.5 52.4 17.1 C 52.1 16.7 51.7 16.5 51.2 16.5 C 50.7 16.5 50.3 16.7 50 17.1 C 49.7 17.5 49.5 18 49.5 18.8 Z M 59.7 20 C 59.7 20 60.8 20.1 60.8 20.1 C 60.7 20.8 60.3 21.3 59.9 21.6 C 59.4 22 58.8 22.1 58.1 22.1 C 57.2 22.1 56.5 21.9 55.9 21.3 C 55.4 20.7 55.1 20 55.1 18.9 C 55.1 17.9 55.4 17.1 55.9 16.5 C 56.5 15.9 57.2 15.6 58 15.6 C 58.9 15.6 59.5 15.9 60.1 16.5 C 60.6 17.1 60.9 17.8 60.9 18.9 C 60.9 18.9 60.9 19 60.9 19.2 C 60.9 19.2 56.2 19.2 56.2 19.2 C 56.3 19.8 56.5 20.4 56.8 20.7 C 57.1 21.1 57.6 21.3 58.1 21.3 C 58.5 21.3 58.8 21.2 59.1 21 C 59.4 20.8 59.6 20.4 59.7 20 Z M 56.3 18.3 C 56.3 18.3 59.8 18.3 59.8 18.3 C 59.7 17.8 59.6 17.4 59.4 17.1 C 59 16.7 58.6 16.5 58 16.5 C 57.6 16.5 57.2 16.7 56.8 17 C 56.5 17.3 56.3 17.7 56.3 18.3 Z M 66.2 22 C 66.2 22 66.19 21.21 66.2 21.2 C 65.8 21.8 65.2 22.1 64.5 22.1 C 64 22.1 63.5 22 63.1 21.7 C 62.7 21.5 62.3 21.1 62.1 20.6 C 61.9 20.1 61.8 19.5 61.8 18.9 C 61.8 18.3 61.9 17.7 62.1 17.2 C 62.3 16.7 62.6 16.3 63 16 C 63.4 15.8 63.9 15.6 64.4 15.6 C 64.8 15.6 65.1 15.7 65.4 15.9 C 65.7 16 65.9 16.2 66.1 16.5 C 66.12 16.49 66.1 13.4 66.1 13.4 L 67.2 13.4 L 67.2 22 L 66.2 22 Z M 62.9 18.9 C 62.9 19.7 63 20.3 63.4 20.7 C 63.7 21.1 64.1 21.3 64.6 21.3 C 65 21.3 65.4 21.1 65.7 20.7 C 66 20.3 66.2 19.8 66.2 19 C 66.2 18.1 66 17.5 65.7 17.1 C 65.4 16.7 65 16.5 64.5 16.5 C 64 16.5 63.6 16.7 63.3 17.1 C 63 17.5 62.9 18.1 62.9 18.9 Z M 71.9 19.2 C 71.9 19.2 73 19.1 73 19.1 C 73 19.6 73.2 19.9 73.3 20.2 C 73.5 20.5 73.8 20.7 74.2 20.9 C 74.6 21 75 21.1 75.5 21.1 C 76 21.1 76.3 21.1 76.7 20.9 C 77 20.8 77.2 20.6 77.4 20.4 C 77.6 20.2 77.7 19.9 77.7 19.7 C 77.7 19.4 77.6 19.2 77.4 19 C 77.3 18.8 77 18.6 76.6 18.5 C 76.4 18.4 75.9 18.2 75.1 18 C 74.3 17.8 73.8 17.7 73.5 17.5 C 73 17.3 72.7 17 72.5 16.7 C 72.3 16.4 72.2 16 72.2 15.6 C 72.2 15.2 72.4 14.8 72.6 14.4 C 72.9 14 73.2 13.8 73.7 13.6 C 74.2 13.4 74.7 13.3 75.3 13.3 C 75.9 13.3 76.5 13.4 76.9 13.6 C 77.4 13.8 77.8 14.1 78.1 14.5 C 78.3 14.9 78.5 15.3 78.5 15.8 C 78.5 15.8 77.4 15.9 77.4 15.9 C 77.3 15.4 77.1 15 76.8 14.7 C 76.5 14.4 76 14.3 75.3 14.3 C 74.6 14.3 74.1 14.4 73.8 14.6 C 73.5 14.9 73.3 15.2 73.3 15.6 C 73.3 15.9 73.4 16.1 73.7 16.3 C 73.9 16.5 74.5 16.7 75.4 16.9 C 76.3 17.1 76.9 17.3 77.3 17.5 C 77.8 17.7 78.2 18 78.4 18.4 C 78.6 18.7 78.8 19.1 78.8 19.6 C 78.8 20 78.6 20.5 78.4 20.9 C 78.1 21.3 77.7 21.6 77.2 21.8 C 76.7 22 76.2 22.1 75.6 22.1 C 74.8 22.1 74.1 22 73.6 21.8 C 73.1 21.6 72.7 21.2 72.4 20.8 C 72.1 20.3 71.9 19.8 71.9 19.2 Z M 84.4 20 C 84.4 20 85.5 20.1 85.5 20.1 C 85.3 20.8 85 21.3 84.6 21.6 C 84.1 22 83.5 22.1 82.8 22.1 C 81.9 22.1 81.1 21.9 80.6 21.3 C 80.1 20.7 79.8 20 79.8 18.9 C 79.8 17.9 80.1 17.1 80.6 16.5 C 81.2 15.9 81.9 15.6 82.7 15.6 C 83.6 15.6 84.2 15.9 84.8 16.5 C 85.3 17.1 85.6 17.8 85.6 18.9 C 85.6 18.9 85.6 19 85.5 19.2 C 85.5 19.2 80.9 19.2 80.9 19.2 C 80.9 19.8 81.1 20.4 81.5 20.7 C 81.8 21.1 82.3 21.3 82.8 21.3 C 83.2 21.3 83.5 21.2 83.8 21 C 84.1 20.8 84.3 20.4 84.4 20 Z M 81 18.3 C 81 18.3 84.4 18.3 84.4 18.3 C 84.4 17.8 84.3 17.4 84 17.1 C 83.7 16.7 83.3 16.5 82.7 16.5 C 82.2 16.5 81.8 16.7 81.5 17 C 81.2 17.3 81 17.7 81 18.3 Z M 86.8 22 L 86.8 15.8 L 87.8 15.8 C 87.8 15.8 87.78 16.72 87.8 16.7 C 88 16.3 88.2 16 88.5 15.8 C 88.7 15.7 88.9 15.6 89.1 15.6 C 89.5 15.6 89.8 15.8 90.2 16 C 90.2 16 89.8 17 89.8 17 C 89.6 16.8 89.3 16.7 89.1 16.7 C 88.8 16.7 88.6 16.8 88.5 16.9 C 88.3 17.1 88.1 17.3 88.1 17.5 C 87.9 17.9 87.9 18.3 87.9 18.7 C 87.88 18.74 87.9 22 87.9 22 L 86.8 22 Z M 92.6 22 L 90.2 15.8 L 91.3 15.8 C 91.3 15.8 92.65 19.5 92.6 19.5 C 92.8 19.9 92.9 20.3 93 20.8 C 93.1 20.4 93.3 20 93.4 19.6 C 93.44 19.57 94.8 15.8 94.8 15.8 L 95.9 15.8 L 93.6 22 L 92.6 22 Z M 96.8 14.6 L 96.8 13.4 L 97.9 13.4 L 97.9 14.6 L 96.8 14.6 Z M 96.8 22 L 96.8 15.8 L 97.9 15.8 L 97.9 22 L 96.8 22 Z M 103.6 19.7 C 103.6 19.7 104.6 19.9 104.6 19.9 C 104.5 20.6 104.2 21.1 103.7 21.5 C 103.3 21.9 102.7 22.1 102 22.1 C 101.2 22.1 100.5 21.9 100 21.3 C 99.4 20.7 99.2 20 99.2 18.9 C 99.2 18.2 99.3 17.7 99.5 17.1 C 99.7 16.6 100.1 16.3 100.5 16 C 101 15.8 101.5 15.6 102 15.6 C 102.7 15.6 103.2 15.8 103.7 16.1 C 104.1 16.5 104.4 17 104.5 17.6 C 104.5 17.6 103.5 17.8 103.5 17.8 C 103.4 17.3 103.2 17 103 16.8 C 102.7 16.6 102.4 16.5 102.1 16.5 C 101.5 16.5 101.1 16.7 100.8 17.1 C 100.4 17.5 100.3 18.1 100.3 18.9 C 100.3 19.7 100.4 20.3 100.7 20.7 C 101.1 21.1 101.5 21.3 102 21.3 C 102.4 21.3 102.8 21.1 103 20.9 C 103.3 20.6 103.5 20.2 103.6 19.7 Z M 109.8 20 C 109.8 20 110.9 20.1 110.9 20.1 C 110.7 20.8 110.4 21.3 109.9 21.6 C 109.4 22 108.8 22.1 108.1 22.1 C 107.2 22.1 106.5 21.9 106 21.3 C 105.4 20.7 105.2 20 105.2 18.9 C 105.2 17.9 105.4 17.1 106 16.5 C 106.5 15.9 107.2 15.6 108.1 15.6 C 108.9 15.6 109.6 15.9 110.1 16.5 C 110.6 17.1 110.9 17.8 110.9 18.9 C 110.9 18.9 110.9 19 110.9 19.2 C 110.9 19.2 106.2 19.2 106.2 19.2 C 106.3 19.8 106.5 20.4 106.8 20.7 C 107.2 21.1 107.6 21.3 108.1 21.3 C 108.5 21.3 108.8 21.2 109.1 21 C 109.4 20.8 109.6 20.4 109.8 20 Z M 106.3 18.3 C 106.3 18.3 109.8 18.3 109.8 18.3 C 109.7 17.8 109.6 17.4 109.4 17.1 C 109 16.7 108.6 16.5 108.1 16.5 C 107.6 16.5 107.2 16.7 106.8 17 C 106.5 17.3 106.3 17.7 106.3 18.3 Z M 111.8 20.1 C 111.8 20.1 112.8 20 112.8 20 C 112.9 20.4 113 20.7 113.3 20.9 C 113.6 21.2 113.9 21.3 114.4 21.3 C 114.9 21.3 115.3 21.2 115.5 21 C 115.7 20.8 115.8 20.5 115.8 20.3 C 115.8 20 115.7 19.9 115.5 19.7 C 115.4 19.6 115 19.5 114.5 19.4 C 113.7 19.2 113.1 19 112.8 18.9 C 112.5 18.7 112.3 18.5 112.2 18.3 C 112 18 111.9 17.7 111.9 17.4 C 111.9 17.2 112 16.9 112.1 16.7 C 112.2 16.4 112.4 16.2 112.6 16.1 C 112.8 15.9 113 15.8 113.3 15.8 C 113.6 15.7 113.9 15.6 114.2 15.6 C 114.7 15.6 115.1 15.7 115.5 15.8 C 115.9 16 116.2 16.2 116.3 16.4 C 116.5 16.7 116.6 17 116.7 17.4 C 116.7 17.4 115.7 17.5 115.7 17.5 C 115.6 17.2 115.5 17 115.3 16.8 C 115 16.6 114.7 16.5 114.3 16.5 C 113.8 16.5 113.5 16.6 113.3 16.7 C 113.1 16.9 113 17.1 113 17.3 C 113 17.4 113 17.6 113.1 17.7 C 113.2 17.8 113.3 17.9 113.5 18 C 113.6 18 113.9 18.1 114.4 18.2 C 115.2 18.4 115.7 18.6 116 18.7 C 116.3 18.8 116.5 19 116.7 19.3 C 116.8 19.5 116.9 19.8 116.9 20.2 C 116.9 20.5 116.8 20.9 116.6 21.2 C 116.4 21.5 116.1 21.7 115.7 21.9 C 115.3 22.1 114.9 22.1 114.4 22.1 C 113.6 22.1 113 22 112.6 21.6 C 112.1 21.3 111.9 20.8 111.8 20.1 Z " stroke="none" fill="#000"/>  </g>  <g id="Polygon27690">    <path d="M 1.6 14.2 C 1.6 13.7 1.7 13.2 1.9 12.7 C 2.1 12.2 2.4 11.8 2.8 11.5 C 3.1 11.1 3.5 10.8 4 10.6 C 4.5 10.4 5 10.3 5.5 10.3 C 6 10.3 6.5 10.4 7 10.6 C 7.5 10.8 7.9 11.1 8.3 11.5 C 8.6 11.8 8.9 12.2 9.1 12.7 C 9.3 13.2 9.4 13.7 9.4 14.2 C 9.4 14.8 9.3 15.3 9.1 15.7 C 8.9 16.2 8.6 16.6 8.3 17 C 7.9 17.3 7.5 17.6 7 17.8 C 6.5 18 6 18.1 5.5 18.1 C 5 18.1 4.5 18 4 17.8 C 3.5 17.6 3.1 17.3 2.8 17 C 2.4 16.6 2.1 16.2 1.9 15.7 C 1.7 15.3 1.6 14.8 1.6 14.2 Z " stroke="none" fill="#f28620"/>  </g></svg>